<svg id="svg" version="1.1" xmlns="http://www.w3.org/2000/svg" xmlns:xlink="http://www.w3.org/1999/xlink" width="400" height="400" viewBox="0, 0, 400,400"><g id="svgg"><path id="path0" d="M0.000 99.400 C 0.000 203.001,-0.028 201.213,1.527 197.800 C 1.778 197.250,2.257 196.800,2.591 196.800 C 2.926 196.800,3.200 196.616,3.200 196.391 C 3.200 195.907,7.571 191.600,8.062 191.600 C 8.248 191.600,8.400 191.424,8.400 191.209 C 8.400 190.737,12.679 186.400,13.144 186.400 C 13.324 186.400,13.677 185.950,13.927 185.400 C 14.178 184.850,14.657 184.400,14.991 184.400 C 15.326 184.400,15.600 184.113,15.600 183.763 C 15.600 183.412,15.938 183.037,16.351 182.929 C 16.764 182.821,17.301 182.297,17.543 181.766 C 17.785 181.235,18.257 180.800,18.591 180.800 C 18.926 180.800,19.200 180.616,19.200 180.391 C 19.200 179.907,23.571 175.600,24.062 175.600 C 24.248 175.600,24.400 175.326,24.400 174.991 C 24.400 174.657,24.850 174.178,25.400 173.927 C 25.950 173.677,26.400 173.340,26.400 173.178 C 26.400 172.714,28.677 170.400,29.134 170.400 C 29.360 170.400,29.657 170.049,29.794 169.620 C 29.930 169.192,30.392 168.730,30.820 168.594 C 31.249 168.457,31.600 168.071,31.600 167.736 C 31.600 167.400,31.938 167.037,32.351 166.929 C 32.764 166.821,33.301 166.297,33.543 165.766 C 33.785 165.235,34.257 164.800,34.591 164.800 C 34.926 164.800,35.200 164.616,35.200 164.391 C 35.200 164.050,39.501 159.600,39.831 159.600 C 39.984 159.600,42.400 157.165,42.400 157.012 C 42.400 156.689,44.764 154.400,45.096 154.400 C 45.303 154.400,45.677 153.950,45.927 153.400 C 46.178 152.850,46.657 152.400,46.991 152.400 C 47.326 152.400,47.600 152.113,47.600 151.763 C 47.600 151.412,47.960 151.031,48.400 150.916 C 48.840 150.801,49.200 150.563,49.200 150.388 C 49.200 149.945,55.593 143.600,56.039 143.600 C 56.237 143.600,56.400 143.326,56.400 142.991 C 56.400 142.657,56.850 142.178,57.400 141.927 C 57.950 141.677,58.400 141.340,58.400 141.178 C 58.400 140.714,60.677 138.400,61.134 138.400 C 61.360 138.400,61.657 138.049,61.794 137.620 C 61.930 137.192,62.372 136.736,62.777 136.607 C 63.182 136.479,63.606 136.019,63.719 135.587 C 63.833 135.154,64.200 134.800,64.536 134.800 C 64.871 134.800,65.257 134.449,65.394 134.020 C 65.530 133.592,65.992 133.130,66.420 132.994 C 66.849 132.857,67.200 132.574,67.200 132.364 C 67.200 132.041,71.517 127.600,71.831 127.600 C 71.984 127.600,74.400 125.165,74.400 125.012 C 74.400 124.669,76.775 122.400,77.134 122.400 C 77.360 122.400,77.657 122.049,77.794 121.620 C 77.930 121.192,78.372 120.736,78.777 120.607 C 79.182 120.479,79.606 120.019,79.719 119.587 C 79.833 119.154,80.200 118.800,80.536 118.800 C 80.871 118.800,81.257 118.449,81.394 118.020 C 81.530 117.592,81.992 117.130,82.420 116.994 C 82.849 116.857,83.200 116.574,83.200 116.364 C 83.200 115.899,87.588 111.600,88.062 111.600 C 88.248 111.600,88.400 111.360,88.400 111.068 C 88.400 110.775,88.850 110.294,89.400 110.000 C 89.950 109.706,90.400 109.329,90.400 109.163 C 90.400 108.747,92.782 106.400,93.204 106.400 C 93.392 106.400,93.657 106.049,93.794 105.620 C 93.930 105.192,94.372 104.736,94.777 104.607 C 95.182 104.479,95.606 104.019,95.719 103.587 C 95.833 103.154,96.200 102.800,96.536 102.800 C 96.871 102.800,97.264 102.430,97.407 101.977 C 97.551 101.524,98.058 100.977,98.534 100.760 C 99.010 100.543,99.850 100.106,100.400 99.789 C 101.264 99.290,114.835 99.211,199.925 99.206 L 298.450 99.200 300.625 100.229 C 301.821 100.795,302.800 101.503,302.800 101.802 C 302.800 102.101,303.151 102.457,303.580 102.594 C 304.008 102.730,304.467 103.183,304.600 103.600 C 304.733 104.017,305.192 104.470,305.620 104.606 C 306.049 104.743,306.400 104.994,306.400 105.165 C 306.400 105.612,312.333 111.600,312.776 111.600 C 312.980 111.600,313.257 111.951,313.394 112.380 C 313.530 112.808,313.992 113.270,314.420 113.406 C 314.849 113.543,315.200 113.806,315.200 113.992 C 315.200 114.179,316.235 115.334,317.500 116.559 C 318.765 117.785,319.941 118.925,320.114 119.094 C 320.286 119.262,322.226 121.245,324.425 123.500 C 326.623 125.755,328.585 127.600,328.784 127.600 C 328.983 127.600,329.257 127.951,329.394 128.380 C 329.530 128.808,329.992 129.270,330.420 129.406 C 330.849 129.543,331.200 129.808,331.200 129.996 C 331.200 130.442,333.558 132.800,334.004 132.800 C 334.192 132.800,334.457 133.151,334.594 133.580 C 334.730 134.008,335.192 134.470,335.620 134.606 C 336.049 134.743,336.400 135.001,336.400 135.181 C 336.400 135.643,367.559 166.800,368.021 166.800 C 368.229 166.800,368.400 166.970,368.400 167.178 C 368.400 167.547,399.446 198.800,399.813 198.800 C 399.916 198.800,400.000 154.070,400.000 99.400 L 400.000 0.000 200.000 0.000 L 0.000 0.000 0.000 99.400 M298.535 102.959 C 298.059 103.223,275.968 125.210,249.443 151.820 L 201.217 200.200 248.851 247.845 C 275.050 274.050,296.601 295.659,296.742 295.864 C 296.884 296.070,297.585 296.647,298.300 297.147 L 299.600 298.054 299.600 200.227 C 299.600 146.422,299.555 102.418,299.500 102.439 C 299.445 102.461,299.011 102.695,298.535 102.959 M101.700 103.092 C 101.012 103.332,100.959 296.604,101.647 297.029 C 102.082 297.298,197.593 202.219,198.467 200.647 C 198.832 199.989,195.552 196.559,172.258 173.247 C 157.614 158.591,135.860 136.771,123.916 124.758 C 111.972 112.746,101.975 102.996,101.700 103.092 M0.000 300.800 L 0.000 400.000 200.000 400.000 L 400.000 400.000 400.000 300.800 C 400.000 246.240,399.892 201.600,399.761 201.600 C 399.630 201.600,398.381 202.770,396.985 204.200 C 395.590 205.630,394.258 206.800,394.024 206.800 C 393.791 206.800,393.600 206.992,393.600 207.226 C 393.600 207.769,378.548 222.800,378.005 222.800 C 377.782 222.800,377.600 222.980,377.600 223.200 C 377.600 223.695,369.774 231.600,369.284 231.600 C 369.088 231.600,368.723 232.050,368.473 232.600 C 368.222 233.150,367.743 233.600,367.409 233.600 C 367.074 233.600,366.800 233.788,366.800 234.017 C 366.800 234.521,362.547 238.800,362.047 238.800 C 361.852 238.800,361.596 239.173,361.476 239.630 C 361.357 240.086,360.886 240.557,360.430 240.676 C 359.973 240.796,359.600 241.052,359.600 241.247 C 359.600 241.737,350.093 251.200,349.600 251.200 C 349.380 251.200,349.200 251.474,349.200 251.809 C 349.200 252.143,348.765 252.615,348.234 252.857 C 347.703 253.099,347.179 253.636,347.071 254.049 C 346.963 254.462,346.588 254.800,346.237 254.800 C 345.887 254.800,345.600 254.986,345.600 255.213 C 345.600 255.751,342.951 258.400,342.413 258.400 C 342.186 258.400,342.000 258.548,342.000 258.729 C 342.000 259.181,337.720 263.600,337.282 263.600 C 337.087 263.600,336.723 264.050,336.473 264.600 C 336.222 265.150,335.743 265.600,335.409 265.600 C 335.074 265.600,334.800 265.804,334.800 266.053 C 334.800 266.557,332.128 269.200,331.618 269.200 C 331.439 269.200,331.199 269.560,331.084 270.000 C 330.969 270.440,330.600 270.800,330.264 270.800 C 329.929 270.800,329.543 271.151,329.406 271.580 C 329.270 272.008,328.808 272.470,328.380 272.606 C 327.951 272.743,327.600 273.041,327.600 273.270 C 327.600 273.728,323.250 278.000,322.784 278.000 C 322.624 278.000,322.399 278.360,322.284 278.800 C 322.169 279.240,321.788 279.600,321.437 279.600 C 321.087 279.600,320.800 279.745,320.800 279.922 C 320.800 280.434,318.139 283.200,317.646 283.200 C 317.401 283.200,317.200 283.474,317.200 283.809 C 317.200 284.143,316.765 284.615,316.234 284.857 C 315.703 285.099,315.179 285.636,315.071 286.049 C 314.963 286.462,314.600 286.800,314.264 286.800 C 313.929 286.800,313.543 287.151,313.406 287.580 C 313.270 288.008,312.828 288.464,312.423 288.593 C 312.018 288.721,311.594 289.181,311.481 289.613 C 311.367 290.046,310.988 290.400,310.637 290.400 C 310.287 290.400,310.000 290.548,310.000 290.729 C 310.000 291.204,305.708 295.600,305.244 295.600 C 305.030 295.600,304.743 295.951,304.606 296.380 C 304.470 296.808,304.028 297.264,303.623 297.393 C 303.218 297.521,302.805 297.936,302.706 298.313 C 302.607 298.691,301.710 299.406,300.714 299.902 L 298.903 300.805 199.542 300.702 C 111.915 300.612,100.094 300.529,99.447 300.000 C 99.044 299.670,85.392 286.125,69.109 269.900 C 52.826 253.675,39.358 240.400,39.179 240.400 C 39.000 240.400,38.740 240.040,38.600 239.600 C 38.460 239.160,38.100 238.800,37.800 238.800 C 37.500 238.800,37.143 238.449,37.006 238.020 C 36.870 237.592,36.408 237.130,35.980 236.994 C 35.551 236.857,35.200 236.557,35.200 236.327 C 35.200 235.880,32.431 233.200,31.968 233.200 C 31.817 233.200,31.599 232.840,31.484 232.400 C 31.369 231.960,30.988 231.600,30.637 231.600 C 30.287 231.600,30.000 231.438,30.000 231.240 C 30.000 230.787,27.236 228.000,26.787 228.000 C 26.604 228.000,26.346 227.659,26.214 227.243 C 26.082 226.827,25.619 226.394,25.187 226.281 C 24.754 226.167,24.400 225.800,24.400 225.464 C 24.400 225.129,24.040 224.740,23.600 224.600 C 23.160 224.460,22.800 224.196,22.800 224.013 C 22.800 223.564,20.013 220.800,19.560 220.800 C 19.362 220.800,19.200 220.513,19.200 220.163 C 19.200 219.812,18.846 219.433,18.413 219.319 C 17.981 219.206,17.521 218.782,17.393 218.377 C 17.264 217.972,16.828 217.536,16.423 217.407 C 16.018 217.279,15.594 216.819,15.481 216.387 C 15.367 215.954,15.000 215.600,14.664 215.600 C 14.329 215.600,13.943 215.249,13.806 214.820 C 13.670 214.392,13.208 213.930,12.780 213.794 C 12.351 213.657,12.000 213.300,12.000 213.000 C 12.000 212.700,11.649 212.343,11.220 212.206 C 10.792 212.070,10.336 211.628,10.207 211.223 C 10.079 210.818,9.619 210.394,9.187 210.281 C 8.754 210.167,8.400 209.800,8.400 209.464 C 8.400 209.129,8.049 208.743,7.620 208.606 C 7.192 208.470,6.736 208.028,6.607 207.623 C 6.479 207.218,6.019 206.794,5.587 206.681 C 5.154 206.567,4.800 206.200,4.800 205.864 C 4.800 205.529,4.440 205.140,4.000 205.000 C 3.560 204.860,3.200 204.500,3.200 204.200 C 3.200 203.900,2.849 203.543,2.420 203.406 C 1.992 203.270,1.530 202.808,1.394 202.380 C 1.257 201.951,0.888 201.600,0.573 201.600 C 0.077 201.600,0.000 214.963,0.000 300.800 " stroke="none" fill="#fcfcfc" fill-rule="evenodd"></path><path id="path1" d="M103.600 101.777 C 103.600 102.408,199.601 198.803,200.221 198.795 C 200.778 198.788,296.600 102.421,296.600 101.869 C 296.600 101.512,273.570 101.376,200.100 101.299 C 116.105 101.211,103.600 101.273,103.600 101.777 M301.064 101.869 C 300.692 102.242,300.733 297.911,301.105 298.142 C 301.273 298.245,301.948 297.697,302.605 296.923 C 303.262 296.149,306.410 292.924,309.600 289.756 C 312.790 286.588,315.580 283.813,315.800 283.590 C 316.398 282.983,322.314 277.069,322.842 276.550 C 323.094 276.303,323.889 275.493,324.608 274.750 C 325.327 274.008,326.925 272.452,328.158 271.293 C 329.391 270.134,330.400 269.118,330.400 269.035 C 330.400 268.675,332.760 266.400,333.134 266.400 C 333.360 266.400,333.657 266.049,333.794 265.620 C 333.930 265.192,334.392 264.730,334.820 264.594 C 335.249 264.457,335.600 264.197,335.600 264.016 C 335.600 263.699,336.674 262.595,343.370 256.030 C 345.037 254.397,346.400 252.912,346.400 252.730 C 346.400 252.549,346.639 252.400,346.930 252.400 C 347.222 252.400,347.987 251.751,348.630 250.957 C 350.370 248.811,352.262 246.800,352.540 246.800 C 352.675 246.800,353.734 245.786,354.893 244.546 C 356.052 243.306,357.610 241.731,358.355 241.046 C 360.974 238.637,363.273 236.261,363.879 235.335 C 364.216 234.821,364.729 234.400,365.019 234.400 C 365.309 234.400,365.660 234.040,365.800 233.600 C 365.940 233.160,366.243 232.800,366.473 232.800 C 366.931 232.800,369.600 230.025,369.600 229.549 C 369.600 229.387,369.960 229.140,370.400 229.000 C 370.840 228.860,371.200 228.488,371.200 228.173 C 371.200 227.858,371.346 227.600,371.525 227.600 C 371.986 227.600,378.400 221.234,378.400 220.777 C 378.400 220.570,378.560 220.400,378.756 220.400 C 379.252 220.400,383.417 216.253,383.724 215.454 C 383.862 215.094,384.165 214.800,384.396 214.800 C 384.889 214.800,389.200 210.436,389.200 209.938 C 389.200 209.752,389.346 209.600,389.525 209.600 C 389.961 209.600,397.310 202.303,398.123 201.062 C 398.978 199.756,402.259 203.173,348.334 149.200 C 323.167 124.010,302.295 102.996,301.952 102.503 C 301.609 102.009,301.209 101.724,301.064 101.869 M78.600 122.617 C 67.600 133.691,58.375 142.763,58.100 142.776 C 57.825 142.789,57.600 142.991,57.600 143.224 C 57.600 143.776,26.575 174.800,26.022 174.800 C 25.790 174.800,25.600 174.999,25.600 175.241 C 25.600 175.484,20.425 180.852,14.100 187.169 C 7.775 193.486,2.280 199.022,1.888 199.472 C 1.194 200.269,1.230 200.343,3.388 202.536 C 4.605 203.772,5.600 204.872,5.600 204.981 C 5.600 205.090,6.242 205.769,7.027 206.490 C 10.979 210.120,25.600 224.846,25.600 225.196 C 25.600 225.418,25.795 225.600,26.032 225.600 C 26.596 225.600,32.400 231.404,32.400 231.968 C 32.400 232.205,32.579 232.400,32.797 232.400 C 33.015 232.400,42.485 241.670,53.841 253.000 C 65.197 264.330,74.648 273.600,74.844 273.600 C 75.040 273.600,75.200 273.764,75.200 273.965 C 75.200 274.413,79.579 278.800,80.026 278.800 C 80.202 278.800,80.457 279.151,80.594 279.580 C 80.730 280.008,81.192 280.470,81.620 280.606 C 82.049 280.743,82.400 281.026,82.400 281.237 C 82.400 281.447,83.769 282.920,85.443 284.510 C 87.117 286.099,88.692 287.628,88.943 287.906 C 91.115 290.314,93.688 292.800,94.008 292.800 C 94.224 292.800,94.400 292.936,94.400 293.102 C 94.400 293.444,98.670 298.000,98.991 298.000 C 99.106 298.000,99.200 253.990,99.200 200.200 C 99.200 146.410,99.065 102.418,98.900 102.440 C 98.735 102.462,89.600 111.542,78.600 122.617 M151.700 249.498 C 122.300 278.966,103.600 297.999,103.600 298.455 C 103.600 299.480,296.255 299.643,296.648 298.618 C 296.850 298.093,200.613 201.121,200.012 201.243 C 199.895 201.267,178.155 222.981,151.700 249.498 " stroke="none" fill="#dc0615" fill-rule="evenodd"></path><path id="path2" d="M100.400 99.789 C 99.850 100.106,99.010 100.543,98.534 100.760 C 98.058 100.977,97.557 101.505,97.421 101.934 C 97.285 102.363,96.819 102.806,96.387 102.919 C 95.954 103.033,95.600 103.400,95.600 103.736 C 95.600 104.071,95.249 104.457,94.820 104.594 C 94.392 104.730,93.930 105.192,93.794 105.620 C 93.657 106.049,93.392 106.400,93.204 106.400 C 92.782 106.400,90.400 108.747,90.400 109.163 C 90.400 109.329,89.950 109.706,89.400 110.000 C 88.850 110.294,88.400 110.775,88.400 111.068 C 88.400 111.360,88.248 111.600,88.062 111.600 C 87.588 111.600,83.200 115.899,83.200 116.364 C 83.200 116.574,82.849 116.857,82.420 116.994 C 81.992 117.130,81.536 117.572,81.407 117.977 C 81.279 118.382,80.819 118.806,80.387 118.919 C 79.954 119.033,79.600 119.400,79.600 119.736 C 79.600 120.071,79.249 120.457,78.820 120.594 C 78.392 120.730,77.930 121.192,77.794 121.620 C 77.657 122.049,77.360 122.400,77.134 122.400 C 76.775 122.400,74.400 124.669,74.400 125.012 C 74.400 125.165,71.984 127.600,71.831 127.600 C 71.517 127.600,67.200 132.041,67.200 132.364 C 67.200 132.574,66.849 132.857,66.420 132.994 C 65.992 133.130,65.536 133.572,65.407 133.977 C 65.279 134.382,64.819 134.806,64.387 134.919 C 63.954 135.033,63.600 135.400,63.600 135.736 C 63.600 136.071,63.249 136.457,62.820 136.594 C 62.392 136.730,61.930 137.192,61.794 137.620 C 61.657 138.049,61.360 138.400,61.134 138.400 C 60.677 138.400,58.400 140.714,58.400 141.178 C 58.400 141.340,57.950 141.677,57.400 141.927 C 56.850 142.178,56.400 142.657,56.400 142.991 C 56.400 143.326,56.237 143.600,56.039 143.600 C 55.593 143.600,49.200 149.945,49.200 150.388 C 49.200 150.563,48.840 150.801,48.400 150.916 C 47.960 151.031,47.600 151.412,47.600 151.763 C 47.600 152.113,47.326 152.400,46.991 152.400 C 46.657 152.400,46.178 152.850,45.927 153.400 C 45.677 153.950,45.303 154.400,45.096 154.400 C 44.764 154.400,42.400 156.689,42.400 157.012 C 42.400 157.165,39.984 159.600,39.831 159.600 C 39.501 159.600,35.200 164.050,35.200 164.391 C 35.200 164.616,34.926 164.800,34.591 164.800 C 34.257 164.800,33.785 165.235,33.543 165.766 C 33.301 166.297,32.764 166.821,32.351 166.929 C 31.938 167.037,31.600 167.400,31.600 167.736 C 31.600 168.071,31.249 168.457,30.820 168.594 C 30.392 168.730,29.930 169.192,29.794 169.620 C 29.657 170.049,29.360 170.400,29.134 170.400 C 28.677 170.400,26.400 172.714,26.400 173.178 C 26.400 173.340,25.950 173.677,25.400 173.927 C 24.850 174.178,24.400 174.657,24.400 174.991 C 24.400 175.326,24.248 175.600,24.062 175.600 C 23.571 175.600,19.200 179.907,19.200 180.391 C 19.200 180.616,18.926 180.800,18.591 180.800 C 18.257 180.800,17.785 181.235,17.543 181.766 C 17.301 182.297,16.764 182.821,16.351 182.929 C 15.938 183.037,15.600 183.412,15.600 183.763 C 15.600 184.113,15.326 184.400,14.991 184.400 C 14.657 184.400,14.178 184.850,13.927 185.400 C 13.677 185.950,13.324 186.400,13.144 186.400 C 12.679 186.400,8.400 190.737,8.400 191.209 C 8.400 191.424,8.248 191.600,8.062 191.600 C 7.571 191.600,3.200 195.907,3.200 196.391 C 3.200 196.616,2.926 196.800,2.591 196.800 C 2.257 196.800,1.778 197.250,1.527 197.800 C 1.277 198.350,0.785 198.814,0.436 198.832 C -0.047 198.856,-0.068 198.916,0.350 199.081 C 0.699 199.220,18.685 181.515,49.809 150.391 C 85.489 114.712,98.892 101.550,99.359 101.729 C 100.279 102.082,100.353 298.290,99.433 298.643 C 99.020 298.801,29.587 230.262,19.800 220.035 C 19.580 219.805,16.453 216.688,12.850 213.108 C 9.248 209.529,6.098 206.380,5.850 206.111 C 1.391 201.264,0.000 200.096,0.000 201.200 C 0.000 201.420,0.258 201.600,0.573 201.600 C 0.888 201.600,1.257 201.951,1.394 202.380 C 1.530 202.808,1.992 203.270,2.420 203.406 C 2.849 203.543,3.200 203.900,3.200 204.200 C 3.200 204.500,3.541 204.854,3.957 204.986 C 4.373 205.118,4.806 205.581,4.919 206.013 C 5.033 206.446,5.400 206.800,5.736 206.800 C 6.071 206.800,6.457 207.151,6.594 207.580 C 6.730 208.008,7.172 208.464,7.577 208.593 C 7.982 208.721,8.406 209.181,8.519 209.613 C 8.633 210.046,9.000 210.400,9.336 210.400 C 9.671 210.400,10.057 210.751,10.194 211.180 C 10.330 211.608,10.792 212.070,11.220 212.206 C 11.649 212.343,12.000 212.700,12.000 213.000 C 12.000 213.300,12.351 213.657,12.780 213.794 C 13.208 213.930,13.670 214.392,13.806 214.820 C 13.943 215.249,14.329 215.600,14.664 215.600 C 15.000 215.600,15.367 215.954,15.481 216.387 C 15.594 216.819,16.018 217.279,16.423 217.407 C 16.828 217.536,17.270 217.992,17.406 218.420 C 17.543 218.849,17.929 219.200,18.264 219.200 C 18.600 219.200,18.969 219.560,19.084 220.000 C 19.199 220.440,19.434 220.800,19.607 220.800 C 20.026 220.800,22.800 223.591,22.800 224.013 C 22.800 224.196,23.141 224.454,23.557 224.586 C 23.973 224.718,24.406 225.181,24.519 225.613 C 24.633 226.046,25.000 226.400,25.336 226.400 C 25.671 226.400,26.060 226.760,26.200 227.200 C 26.340 227.640,26.604 228.000,26.787 228.000 C 27.236 228.000,30.000 230.787,30.000 231.240 C 30.000 231.438,30.287 231.600,30.637 231.600 C 30.988 231.600,31.369 231.960,31.484 232.400 C 31.599 232.840,31.817 233.200,31.968 233.200 C 32.431 233.200,35.200 235.880,35.200 236.327 C 35.200 236.557,35.551 236.857,35.980 236.994 C 36.408 237.130,36.870 237.592,37.006 238.020 C 37.143 238.449,37.500 238.800,37.800 238.800 C 38.100 238.800,38.460 239.160,38.600 239.600 C 38.740 240.040,39.000 240.400,39.179 240.400 C 39.358 240.400,52.826 253.675,69.109 269.900 C 85.392 286.125,99.044 299.670,99.447 300.000 C 100.094 300.529,111.915 300.612,199.542 300.702 L 298.903 300.805 300.714 299.902 C 301.710 299.406,302.607 298.691,302.706 298.313 C 302.805 297.936,303.218 297.521,303.623 297.393 C 304.028 297.264,304.470 296.808,304.606 296.380 C 304.743 295.951,305.030 295.600,305.244 295.600 C 305.681 295.600,310.000 291.218,310.000 290.775 C 310.000 290.620,310.360 290.399,310.800 290.284 C 311.240 290.169,311.600 289.800,311.600 289.464 C 311.600 289.129,311.951 288.743,312.380 288.606 C 312.808 288.470,313.264 288.028,313.393 287.623 C 313.521 287.218,313.981 286.794,314.413 286.681 C 314.846 286.567,315.200 286.217,315.200 285.902 C 315.200 285.586,315.650 285.123,316.200 284.873 C 316.750 284.622,317.200 284.143,317.200 283.809 C 317.200 283.474,317.401 283.200,317.646 283.200 C 318.113 283.200,320.800 280.446,320.800 279.968 C 320.800 279.817,321.160 279.599,321.600 279.484 C 322.040 279.369,322.400 278.988,322.400 278.637 C 322.400 278.287,322.552 278.000,322.737 278.000 C 323.236 278.000,327.600 273.755,327.600 273.270 C 327.600 273.041,327.951 272.743,328.380 272.606 C 328.808 272.470,329.264 272.028,329.393 271.623 C 329.521 271.218,329.981 270.794,330.413 270.681 C 330.846 270.567,331.200 270.188,331.200 269.837 C 331.200 269.487,331.367 269.200,331.572 269.200 C 332.116 269.200,334.800 266.583,334.800 266.053 C 334.800 265.804,335.074 265.600,335.409 265.600 C 335.743 265.600,336.222 265.150,336.473 264.600 C 336.723 264.050,337.087 263.600,337.282 263.600 C 337.720 263.600,342.000 259.181,342.000 258.729 C 342.000 258.548,342.186 258.400,342.413 258.400 C 342.925 258.400,345.600 255.764,345.600 255.260 C 345.600 255.058,345.960 254.799,346.400 254.684 C 346.840 254.569,347.200 254.217,347.200 253.902 C 347.200 253.586,347.650 253.123,348.200 252.873 C 348.750 252.622,349.200 252.143,349.200 251.809 C 349.200 251.474,349.380 251.200,349.600 251.200 C 350.093 251.200,359.600 241.737,359.600 241.247 C 359.600 241.052,359.973 240.796,360.430 240.676 C 360.886 240.557,361.357 240.086,361.476 239.630 C 361.596 239.173,361.852 238.800,362.047 238.800 C 362.547 238.800,366.800 234.521,366.800 234.017 C 366.800 233.788,367.074 233.600,367.409 233.600 C 367.743 233.600,368.222 233.150,368.473 232.600 C 368.723 232.050,369.088 231.600,369.284 231.600 C 369.774 231.600,377.600 223.695,377.600 223.200 C 377.600 222.980,377.782 222.800,378.005 222.800 C 378.548 222.800,393.600 207.769,393.600 207.226 C 393.600 206.992,393.784 206.800,394.008 206.800 C 394.405 206.800,400.000 201.376,400.000 200.992 C 400.000 200.886,399.730 200.800,399.400 200.800 C 399.070 200.800,398.800 200.967,398.800 201.172 C 398.800 201.765,301.529 298.800,300.934 298.800 C 300.194 298.800,300.329 101.557,301.069 101.310 C 301.327 101.224,302.130 101.804,302.852 102.598 C 306.545 106.655,399.229 199.200,399.600 199.200 C 399.839 199.200,392.917 192.081,384.217 183.380 C 375.518 174.678,368.400 167.388,368.400 167.180 C 368.400 166.971,368.229 166.800,368.021 166.800 C 367.559 166.800,336.400 135.643,336.400 135.181 C 336.400 135.001,336.049 134.743,335.620 134.606 C 335.192 134.470,334.730 134.008,334.594 133.580 C 334.457 133.151,334.192 132.800,334.004 132.800 C 333.558 132.800,331.200 130.442,331.200 129.996 C 331.200 129.808,330.849 129.543,330.420 129.406 C 329.992 129.270,329.530 128.808,329.394 128.380 C 329.257 127.951,328.983 127.600,328.784 127.600 C 328.585 127.600,326.623 125.755,324.425 123.500 C 322.226 121.245,320.286 119.262,320.114 119.094 C 319.941 118.925,318.765 117.785,317.500 116.559 C 316.235 115.334,315.200 114.179,315.200 113.992 C 315.200 113.806,314.849 113.543,314.420 113.406 C 313.992 113.270,313.530 112.808,313.394 112.380 C 313.257 111.951,312.980 111.600,312.776 111.600 C 312.333 111.600,306.400 105.612,306.400 105.165 C 306.400 104.994,306.049 104.743,305.620 104.606 C 305.192 104.470,304.733 104.017,304.600 103.600 C 304.467 103.183,304.008 102.730,303.580 102.594 C 303.151 102.457,302.800 102.101,302.800 101.802 C 302.800 101.503,301.821 100.795,300.625 100.229 L 298.450 99.200 199.925 99.206 C 114.835 99.211,101.264 99.290,100.400 99.789 M298.564 100.241 C 299.546 100.619,300.585 99.550,248.922 151.315 C 200.396 199.935,200.304 200.031,201.051 200.873 C 201.858 201.782,239.610 239.709,276.443 276.614 C 294.310 294.516,299.107 299.533,298.726 299.914 C 298.049 300.591,101.987 300.627,101.310 299.950 C 100.977 299.617,113.539 286.814,149.730 250.603 C 176.609 223.710,198.928 201.339,199.329 200.889 C 200.167 199.951,205.148 205.074,137.328 137.125 C 117.179 116.939,101.238 100.662,101.384 100.425 C 101.668 99.967,297.372 99.784,298.564 100.241 M299.600 200.227 L 299.600 298.054 298.300 297.147 C 297.585 296.647,296.884 296.070,296.742 295.864 C 296.601 295.659,275.050 274.050,248.851 247.845 L 201.217 200.200 249.443 151.820 C 275.968 125.210,298.059 103.223,298.535 102.959 C 299.011 102.695,299.445 102.461,299.500 102.439 C 299.555 102.418,299.600 146.422,299.600 200.227 M172.258 173.247 C 195.552 196.559,198.832 199.989,198.467 200.647 C 197.593 202.219,102.082 297.298,101.647 297.029 C 100.959 296.604,101.012 103.332,101.700 103.092 C 101.975 102.996,111.972 112.746,123.916 124.758 C 135.860 136.771,157.614 158.591,172.258 173.247 " stroke="none" fill="#ef9fa5" fill-rule="evenodd"></path><path id="path3" d="M101.928 100.444 C 101.377 100.785,102.794 102.233,154.128 153.757 L 199.916 199.714 201.085 198.882 C 204.027 196.787,298.743 101.010,298.306 100.573 C 298.031 100.298,102.372 100.170,101.928 100.444 M296.600 101.869 C 296.600 102.421,200.778 198.788,200.221 198.795 C 199.601 198.803,103.600 102.408,103.600 101.777 C 103.600 101.273,116.105 101.211,200.100 101.299 C 273.570 101.376,296.600 101.512,296.600 101.869 M300.821 101.739 C 300.254 102.306,300.226 298.245,300.793 298.595 C 301.157 298.821,400.000 200.455,400.000 199.867 C 400.000 199.720,399.848 199.600,399.662 199.600 C 399.476 199.600,396.641 196.887,393.362 193.572 C 386.956 187.095,386.693 186.833,385.914 186.150 C 385.631 185.902,382.483 182.752,378.918 179.150 C 375.353 175.547,369.053 169.226,364.918 165.101 C 360.783 160.977,344.764 144.938,329.321 129.460 C 309.665 109.760,301.116 101.444,300.821 101.739 M49.800 150.627 C 22.960 177.536,0.775 199.563,0.500 199.576 C -0.207 199.610,-0.125 200.400,0.586 200.400 C 0.908 200.400,1.366 200.763,1.603 201.206 C 2.538 202.953,98.980 298.780,99.390 298.370 C 99.887 297.873,100.177 104.995,99.684 103.092 C 99.508 102.412,99.192 101.820,98.982 101.778 C 98.772 101.736,76.640 123.718,49.800 150.627 M348.334 149.200 C 402.259 203.173,398.978 199.756,398.123 201.062 C 397.310 202.303,389.961 209.600,389.525 209.600 C 389.346 209.600,389.200 209.752,389.200 209.938 C 389.200 210.436,384.889 214.800,384.396 214.800 C 384.165 214.800,383.862 215.094,383.724 215.454 C 383.417 216.253,379.252 220.400,378.756 220.400 C 378.560 220.400,378.400 220.570,378.400 220.777 C 378.400 221.234,371.986 227.600,371.525 227.600 C 371.346 227.600,371.200 227.858,371.200 228.173 C 371.200 228.488,370.840 228.860,370.400 229.000 C 369.960 229.140,369.600 229.387,369.600 229.549 C 369.600 230.025,366.931 232.800,366.473 232.800 C 366.243 232.800,365.940 233.160,365.800 233.600 C 365.660 234.040,365.309 234.400,365.019 234.400 C 364.729 234.400,364.216 234.821,363.879 235.335 C 363.273 236.261,360.974 238.637,358.355 241.046 C 357.610 241.731,356.052 243.306,354.893 244.546 C 353.734 245.786,352.675 246.800,352.540 246.800 C 352.262 246.800,350.370 248.811,348.630 250.957 C 347.987 251.751,347.222 252.400,346.930 252.400 C 346.639 252.400,346.400 252.549,346.400 252.730 C 346.400 252.912,345.037 254.397,343.370 256.030 C 336.674 262.595,335.600 263.699,335.600 264.016 C 335.600 264.197,335.249 264.457,334.820 264.594 C 334.392 264.730,333.930 265.192,333.794 265.620 C 333.657 266.049,333.360 266.400,333.134 266.400 C 332.760 266.400,330.400 268.675,330.400 269.035 C 330.400 269.118,329.391 270.134,328.158 271.293 C 326.925 272.452,325.327 274.008,324.608 274.750 C 323.889 275.493,323.094 276.303,322.842 276.550 C 322.314 277.069,316.398 282.983,315.800 283.590 C 315.580 283.813,312.790 286.588,309.600 289.756 C 306.410 292.924,303.262 296.149,302.605 296.923 C 301.948 297.697,301.273 298.245,301.105 298.142 C 300.733 297.911,300.692 102.242,301.064 101.869 C 301.209 101.724,301.609 102.009,301.952 102.503 C 302.295 102.996,323.167 124.010,348.334 149.200 M99.200 200.200 C 99.200 253.990,99.106 298.000,98.991 298.000 C 98.670 298.000,94.400 293.444,94.400 293.102 C 94.400 292.936,94.224 292.800,94.008 292.800 C 93.688 292.800,91.115 290.314,88.943 287.906 C 88.692 287.628,87.117 286.099,85.443 284.510 C 83.769 282.920,82.400 281.447,82.400 281.237 C 82.400 281.026,82.049 280.743,81.620 280.606 C 81.192 280.470,80.730 280.008,80.594 279.580 C 80.457 279.151,80.202 278.800,80.026 278.800 C 79.579 278.800,75.200 274.413,75.200 273.965 C 75.200 273.764,75.040 273.600,74.844 273.600 C 74.648 273.600,65.197 264.330,53.841 253.000 C 42.485 241.670,33.015 232.400,32.797 232.400 C 32.579 232.400,32.400 232.205,32.400 231.968 C 32.400 231.404,26.596 225.600,26.032 225.600 C 25.795 225.600,25.600 225.418,25.600 225.196 C 25.600 224.846,10.979 210.120,7.027 206.490 C 6.242 205.769,5.600 205.090,5.600 204.981 C 5.600 204.872,4.605 203.772,3.388 202.536 C 1.230 200.343,1.194 200.269,1.888 199.472 C 2.280 199.022,7.775 193.486,14.100 187.169 C 20.425 180.852,25.600 175.484,25.600 175.241 C 25.600 174.999,25.790 174.800,26.022 174.800 C 26.575 174.800,57.600 143.776,57.600 143.224 C 57.600 142.991,57.825 142.789,58.100 142.776 C 58.375 142.763,67.600 133.691,78.600 122.617 C 89.600 111.542,98.735 102.462,98.900 102.440 C 99.065 102.418,99.200 146.410,99.200 200.200 M199.289 201.028 C 199.095 201.373,176.940 223.657,150.055 250.548 C 123.170 277.439,101.300 299.566,101.453 299.720 C 101.803 300.070,298.172 300.094,298.522 299.745 C 298.906 299.360,200.694 200.400,199.928 200.400 C 199.769 200.400,199.482 200.682,199.289 201.028 M248.547 249.618 C 280.825 281.959,296.797 298.230,296.648 298.618 C 296.255 299.643,103.600 299.480,103.600 298.455 C 103.600 297.840,199.247 201.398,200.012 201.243 C 200.128 201.219,221.969 222.988,248.547 249.618 " stroke="none" fill="#ec747c" fill-rule="evenodd"></path><path id="path4" d="M101.452 100.315 C 101.345 100.489,101.892 101.344,102.667 102.215 L 104.076 103.800 102.832 102.135 C 101.963 100.972,101.741 100.409,102.094 100.267 C 102.453 100.122,102.461 100.054,102.124 100.032 C 101.862 100.014,101.560 100.142,101.452 100.315 M151.532 100.300 C 178.445 100.357,222.365 100.357,249.132 100.300 C 275.899 100.243,253.880 100.197,200.200 100.197 C 146.520 100.197,124.619 100.243,151.532 100.300 M298.274 100.650 C 298.437 101.072,292.215 107.588,277.958 121.929 L 257.407 142.600 277.130 123.000 C 298.165 102.095,299.557 100.622,298.620 100.263 C 298.224 100.111,298.115 100.233,298.274 100.650 M92.778 107.500 L 91.400 109.000 92.900 107.622 C 94.296 106.338,94.584 106.000,94.278 106.000 C 94.212 106.000,93.537 106.675,92.778 107.500 M120.000 119.725 C 120.000 119.794,120.585 120.379,121.300 121.025 L 122.600 122.200 121.425 120.900 C 120.330 119.688,120.000 119.416,120.000 119.725 M67.978 132.300 L 66.600 133.800 68.100 132.422 C 68.925 131.663,69.600 130.988,69.600 130.922 C 69.600 130.616,69.262 130.904,67.978 132.300 M136.000 135.725 C 136.000 135.794,136.585 136.379,137.300 137.025 L 138.600 138.200 137.425 136.900 C 136.330 135.688,136.000 135.416,136.000 135.725 M35.978 164.300 L 34.600 165.800 36.100 164.422 C 36.925 163.663,37.600 162.988,37.600 162.922 C 37.600 162.616,37.262 162.904,35.978 164.300 M3.978 196.300 L 2.600 197.800 4.100 196.422 C 4.925 195.663,5.600 194.988,5.600 194.922 C 5.600 194.616,5.262 194.904,3.978 196.300 M1.783 198.428 C 1.637 198.663,1.132 199.012,0.659 199.203 C 0.073 199.439,0.003 199.557,0.438 199.575 C 0.789 199.589,1.402 199.240,1.800 198.800 C 2.198 198.360,2.417 198.000,2.286 198.000 C 2.154 198.000,1.928 198.193,1.783 198.428 M199.978 200.117 C 200.737 200.933,201.440 201.600,201.540 201.600 C 201.641 201.600,201.401 201.243,201.007 200.808 C 200.386 200.122,200.364 199.920,200.845 199.308 C 201.349 198.665,201.336 198.650,200.700 199.149 C 200.116 199.607,199.884 199.610,199.300 199.166 C 198.915 198.874,199.220 199.302,199.978 200.117 M28.800 229.000 C 29.546 229.770,30.247 230.400,30.357 230.400 C 30.467 230.400,29.946 229.770,29.200 229.000 C 28.454 228.230,27.753 227.600,27.643 227.600 C 27.533 227.600,28.054 228.230,28.800 229.000 M42.600 242.800 C 43.459 243.680,44.252 244.400,44.362 244.400 C 44.472 244.400,43.859 243.680,43.000 242.800 C 42.141 241.920,41.348 241.200,41.238 241.200 C 41.128 241.200,41.741 241.920,42.600 242.800 M298.224 298.971 C 298.871 299.448,298.900 299.581,298.400 299.774 C 296.989 300.317,101.397 299.817,101.510 299.270 C 101.570 298.979,101.427 298.860,101.190 299.006 C 100.889 299.192,100.901 299.440,101.230 299.836 C 101.909 300.654,298.062 300.689,298.742 299.870 C 299.205 299.312,298.648 298.400,297.844 298.400 C 297.625 298.400,297.796 298.657,298.224 298.971 " stroke="none" fill="#ec7c7c" fill-rule="evenodd"></path></g></svg>