<svg id="svg" version="1.1" xmlns="http://www.w3.org/2000/svg" xmlns:xlink="http://www.w3.org/1999/xlink" width="400" height="363.74999999999994" viewBox="0, 0, 400,363.74999999999994"><g id="svgg"><path id="path0" d="M184.353 0.244 C 182.354 0.326,180.560 0.550,180.368 0.742 C 180.176 0.935,178.986 1.092,177.725 1.092 C 175.930 1.092,175.432 1.210,175.432 1.638 C 175.432 2.040,175.012 2.184,173.833 2.184 C 172.748 2.184,172.167 2.359,172.025 2.730 C 171.910 3.030,171.442 3.278,170.985 3.281 C 169.728 3.289,167.351 4.207,166.865 4.871 C 166.629 5.194,166.069 5.460,165.621 5.460 C 165.174 5.460,164.292 5.828,163.661 6.278 C 162.019 7.452,160.236 8.371,159.604 8.371 C 159.305 8.371,158.855 8.699,158.605 9.099 C 158.355 9.500,158.023 9.827,157.868 9.827 C 157.712 9.827,157.028 10.400,156.348 11.101 C 155.667 11.802,154.875 12.375,154.588 12.375 C 153.968 12.375,152.138 13.993,152.138 14.541 C 152.138 14.751,151.893 14.923,151.592 14.923 C 151.292 14.923,151.046 15.168,151.046 15.469 C 151.046 15.769,150.828 16.015,150.562 16.015 C 150.296 16.015,149.858 16.424,149.591 16.924 C 149.323 17.425,148.870 17.834,148.585 17.834 C 148.300 17.834,147.981 18.162,147.876 18.562 C 147.771 18.963,147.459 19.290,147.182 19.290 C 146.905 19.290,146.679 19.466,146.679 19.680 C 146.679 20.184,145.753 21.110,145.249 21.110 C 145.034 21.110,144.859 21.288,144.859 21.504 C 144.859 21.991,142.433 24.386,141.941 24.386 C 141.744 24.386,141.583 24.631,141.583 24.932 C 141.583 25.232,141.338 25.478,141.037 25.478 C 140.737 25.478,140.491 25.696,140.491 25.962 C 140.491 26.229,140.082 26.666,139.581 26.934 C 139.081 27.201,138.672 27.628,138.672 27.880 C 138.672 28.133,138.344 28.444,137.944 28.571 C 137.543 28.698,137.216 29.037,137.216 29.324 C 137.216 29.611,137.040 29.845,136.826 29.845 C 136.316 29.845,135.603 30.580,135.276 31.444 C 135.132 31.823,134.926 32.044,134.817 31.936 C 134.572 31.691,132.120 34.104,132.120 34.589 C 132.120 34.783,131.874 34.941,131.574 34.941 C 131.274 34.941,131.028 35.187,131.028 35.487 C 131.028 35.787,130.783 36.033,130.482 36.033 C 130.182 36.033,129.936 36.208,129.936 36.423 C 129.936 36.860,129.036 37.853,128.639 37.853 C 128.301 37.853,126.661 39.628,126.661 39.994 C 126.661 40.150,126.251 40.496,125.751 40.764 C 125.250 41.032,124.841 41.469,124.841 41.736 C 124.841 42.002,124.709 42.220,124.548 42.220 C 124.082 42.220,121.565 44.642,121.565 45.090 C 121.565 45.313,121.319 45.496,121.019 45.496 C 120.719 45.496,120.473 45.742,120.473 46.042 C 120.473 46.342,120.306 46.588,120.103 46.588 C 119.648 46.588,117.197 49.070,117.197 49.531 C 117.197 49.714,117.022 49.864,116.807 49.864 C 116.304 49.864,115.378 50.789,115.378 51.293 C 115.378 51.508,115.240 51.683,115.073 51.683 C 114.710 51.683,112.129 54.101,111.366 55.156 C 111.070 55.565,110.173 56.422,109.372 57.061 C 108.571 57.699,107.589 58.715,107.188 59.319 C 106.788 59.923,106.326 60.417,106.161 60.418 C 105.731 60.419,104.823 61.390,104.823 61.848 C 104.823 62.063,104.689 62.238,104.525 62.238 C 104.025 62.238,101.547 64.593,101.547 65.068 C 101.547 65.314,101.301 65.514,101.001 65.514 C 100.701 65.514,100.455 65.760,100.455 66.060 C 100.455 66.360,100.308 66.606,100.127 66.606 C 99.701 66.606,97.179 69.128,97.179 69.554 C 97.179 69.734,96.934 69.882,96.633 69.882 C 96.333 69.882,96.087 70.015,96.087 70.177 C 96.087 70.498,95.239 71.441,93.865 72.649 C 91.775 74.486,89.864 76.808,90.112 77.210 C 90.281 77.483,90.219 77.540,89.940 77.368 C 89.438 77.057,87.716 78.070,87.716 78.676 C 87.716 78.900,87.445 79.281,87.115 79.522 C 86.775 79.771,86.630 80.152,86.783 80.399 C 86.990 80.734,87.173 80.736,87.567 80.410 C 88.027 80.027,88.223 80.180,88.136 80.854 C 88.119 80.984,88.427 81.006,88.820 80.903 C 89.314 80.774,89.536 80.898,89.536 81.304 C 89.536 81.628,89.771 81.893,90.057 81.893 C 90.344 81.893,90.680 82.212,90.804 82.602 C 90.928 82.992,91.348 83.413,91.738 83.536 C 92.128 83.660,92.448 83.996,92.448 84.283 C 92.448 84.570,92.614 84.804,92.817 84.804 C 93.020 84.804,93.940 85.536,94.860 86.431 C 95.780 87.325,96.834 88.152,97.202 88.269 C 97.569 88.386,97.963 88.776,98.078 89.135 C 98.192 89.495,98.691 89.975,99.188 90.201 C 99.685 90.427,100.091 90.780,100.091 90.984 C 100.091 91.188,100.337 91.356,100.637 91.356 C 100.937 91.356,101.183 91.565,101.183 91.821 C 101.183 92.395,102.911 93.943,104.216 94.538 C 104.750 94.781,105.187 95.233,105.187 95.543 C 105.187 95.877,105.630 96.194,106.278 96.324 C 106.879 96.444,107.370 96.743,107.370 96.989 C 107.370 97.495,110.860 100.819,111.391 100.819 C 111.582 100.819,111.738 101.009,111.738 101.241 C 111.738 101.798,113.915 103.731,114.542 103.731 C 114.811 103.731,115.187 104.140,115.378 104.641 C 115.568 105.141,115.858 105.551,116.022 105.551 C 116.740 105.551,119.382 108.458,119.386 109.253 C 119.389 110.021,119.539 109.948,120.989 108.462 C 121.868 107.561,125.893 103.631,129.933 99.727 C 136.397 93.480,152.039 77.867,171.164 58.571 C 174.522 55.183,177.324 52.411,177.391 52.411 C 177.458 52.411,186.176 43.736,196.764 33.133 C 210.420 19.458,216.491 13.619,217.652 13.043 C 218.553 12.596,219.536 12.045,219.836 11.817 C 221.887 10.263,233.277 10.383,234.869 11.976 C 235.089 12.195,235.607 12.375,236.020 12.375 C 236.758 12.375,238.049 12.979,240.582 14.508 C 241.283 14.931,242.187 15.425,242.590 15.605 C 243.618 16.063,247.043 18.773,248.727 20.461 C 250.562 22.300,252.229 22.717,252.229 21.338 C 252.229 20.812,252.082 20.382,251.901 20.382 C 251.501 20.382,248.226 17.101,248.226 16.700 C 248.226 16.542,247.652 16.141,246.952 15.808 C 246.251 15.476,245.678 15.059,245.678 14.881 C 245.678 14.704,245.432 14.559,245.132 14.559 C 244.832 14.559,244.586 14.328,244.586 14.045 C 244.586 13.763,243.862 13.181,242.978 12.753 C 242.093 12.325,241.193 11.762,240.978 11.503 C 240.763 11.244,239.890 10.723,239.038 10.346 C 238.186 9.970,237.273 9.368,237.009 9.010 C 236.745 8.652,236.390 8.445,236.219 8.550 C 236.049 8.656,235.660 8.493,235.355 8.188 C 235.050 7.883,234.300 7.533,233.688 7.411 C 233.076 7.289,232.575 7.045,232.575 6.870 C 232.575 6.695,232.079 6.551,231.472 6.551 C 230.827 6.551,230.281 6.325,230.159 6.005 C 230.044 5.705,229.567 5.460,229.100 5.460 C 228.633 5.460,228.149 5.296,228.025 5.096 C 227.902 4.895,227.483 4.732,227.094 4.732 C 226.706 4.732,226.388 4.586,226.388 4.409 C 226.388 4.103,225.563 3.870,222.811 3.397 C 222.145 3.283,221.529 3.004,221.442 2.778 C 221.355 2.551,220.427 2.314,219.380 2.251 C 218.332 2.188,217.216 1.901,216.898 1.614 C 216.542 1.292,215.543 1.092,214.287 1.092 C 213.169 1.092,212.199 0.928,212.132 0.729 C 212.003 0.342,190.936 -0.025,184.353 0.244 M84.167 82.337 C 83.717 82.554,83.348 82.871,83.348 83.040 C 83.348 83.572,83.937 83.378,84.622 82.621 C 85.363 81.803,85.324 81.779,84.167 82.337 M59.205 177.859 C 58.457 178.607,59.571 185.842,60.738 187.807 C 60.916 188.107,61.281 188.844,61.549 189.445 C 61.817 190.045,62.250 190.783,62.511 191.083 C 62.773 191.383,63.408 192.120,63.923 192.721 C 65.849 194.966,69.966 199.090,70.282 199.090 C 70.462 199.090,70.610 199.235,70.610 199.413 C 70.610 199.834,76.053 205.278,76.474 205.278 C 76.652 205.278,76.797 205.423,76.797 205.600 C 76.797 206.022,82.240 211.465,82.662 211.465 C 82.839 211.465,82.985 211.610,82.985 211.787 C 82.985 212.207,89.886 219.108,90.306 219.108 C 90.483 219.108,90.628 219.257,90.628 219.438 C 90.628 219.875,96.040 225.296,96.476 225.296 C 96.663 225.296,96.815 225.440,96.815 225.616 C 96.815 226.021,102.294 231.483,102.701 231.483 C 102.867 231.483,103.003 231.629,103.003 231.808 C 103.003 231.986,104.580 233.665,106.508 235.538 C 108.435 237.412,118.017 246.944,127.800 256.721 C 137.583 266.498,145.587 274.339,145.587 274.145 C 145.587 273.951,145.341 273.589,145.041 273.339 C 144.741 273.090,144.495 272.514,144.495 272.060 C 144.495 271.605,144.249 271.139,143.949 271.024 C 142.890 270.617,143.907 268.959,145.532 268.443 C 145.942 268.313,146.379 267.887,146.503 267.497 C 146.627 267.107,147.058 266.611,147.460 266.395 C 148.632 265.768,149.591 264.844,149.591 264.341 C 149.591 264.086,149.825 263.876,150.111 263.876 C 150.398 263.876,150.684 263.509,150.748 263.061 C 150.812 262.613,151.157 262.190,151.515 262.122 C 151.873 262.054,154.214 259.934,156.718 257.412 C 159.223 254.889,161.632 252.646,162.073 252.426 C 162.514 252.206,163.089 251.580,163.350 251.036 C 163.626 250.460,164.121 250.045,164.533 250.045 C 164.938 250.045,165.241 249.797,165.241 249.467 C 165.241 248.898,166.592 247.534,167.178 247.510 C 167.615 247.492,168.517 246.521,168.517 246.068 C 168.517 245.853,168.654 245.678,168.823 245.678 C 168.991 245.678,170.445 244.354,172.054 242.736 L 174.980 239.795 176.480 240.560 C 177.305 240.981,177.980 241.486,177.980 241.682 C 177.980 241.878,178.308 242.038,178.708 242.038 C 179.193 242.038,179.436 241.796,179.436 241.310 C 179.436 240.906,179.193 240.582,178.890 240.582 C 178.590 240.582,178.344 240.418,178.344 240.218 C 178.344 239.797,175.788 237.307,175.356 237.307 C 175.198 237.307,175.068 237.134,175.068 236.922 C 175.068 236.711,173.430 234.903,171.429 232.904 C 169.427 230.905,167.789 229.138,167.789 228.979 C 167.789 228.819,167.379 228.502,166.879 228.274 C 166.379 228.046,165.969 227.610,165.969 227.305 C 165.969 226.994,165.650 226.752,165.241 226.752 C 164.841 226.752,164.513 226.575,164.513 226.359 C 164.513 226.143,163.858 225.318,163.057 224.525 C 162.257 223.732,161.601 223.006,161.601 222.911 C 161.601 222.558,159.219 220.585,158.781 220.575 C 158.530 220.569,158.321 220.359,158.315 220.109 C 158.302 219.539,156.281 217.288,155.783 217.288 C 155.580 217.288,155.414 217.043,155.414 216.742 C 155.414 216.442,155.254 216.197,155.059 216.197 C 154.864 216.197,154.167 215.607,153.512 214.886 C 150.939 212.056,145.508 206.733,145.192 206.733 C 145.009 206.733,144.859 206.575,144.859 206.382 C 144.859 205.924,142.393 203.458,141.935 203.458 C 141.742 203.458,141.583 203.281,141.583 203.066 C 141.583 202.463,139.528 200.546,138.882 200.546 C 138.566 200.546,138.308 200.306,138.308 200.013 C 138.308 199.401,136.337 197.270,135.772 197.270 C 135.565 197.270,135.396 197.094,135.396 196.878 C 135.396 196.663,134.904 195.995,134.304 195.394 C 133.703 194.794,133.212 194.151,133.212 193.967 C 133.212 193.782,133.086 193.672,132.931 193.722 C 132.777 193.772,131.082 192.216,129.164 190.264 C 127.246 188.312,125.524 186.715,125.337 186.715 C 125.150 186.715,124.711 186.230,124.360 185.636 C 124.010 185.043,123.237 184.270,122.644 183.920 C 122.051 183.569,121.565 183.072,121.565 182.815 C 121.565 182.558,121.401 182.348,121.201 182.348 C 121.001 182.348,120.837 182.102,120.837 181.802 C 120.837 181.501,120.591 181.256,120.291 181.256 C 119.991 181.256,119.745 181.092,119.745 180.892 C 119.745 180.692,119.418 180.528,119.017 180.528 C 118.540 180.528,118.289 180.285,118.289 179.824 C 118.289 178.766,118.554 178.781,95.541 178.515 C 83.731 178.378,73.791 178.120,73.454 177.941 C 72.750 177.568,59.572 177.492,59.205 177.859 M282.712 186.960 C 282.161 187.318,281.711 187.808,281.711 188.049 C 281.711 188.289,281.383 188.590,280.983 188.717 C 280.582 188.844,280.255 189.156,280.255 189.411 C 280.255 189.666,279.845 190.061,279.345 190.289 C 278.844 190.517,278.435 190.952,278.435 191.257 C 278.435 191.562,278.189 191.811,277.889 191.811 C 277.589 191.811,277.343 192.045,277.343 192.332 C 277.343 192.619,277.056 192.953,276.706 193.075 C 276.356 193.197,275.578 193.937,274.977 194.721 C 274.377 195.504,273.681 196.152,273.430 196.161 C 273.180 196.171,272.975 196.354,272.975 196.568 C 272.975 197.000,272.077 197.998,271.689 197.998 C 271.331 197.998,269.865 199.935,269.973 200.266 C 270.023 200.420,269.893 200.546,269.685 200.546 C 269.167 200.546,268.050 201.672,267.754 202.491 C 267.621 202.861,267.186 203.248,266.786 203.353 C 266.385 203.458,266.060 203.849,266.060 204.228 C 266.060 204.605,265.833 204.914,265.556 204.914 C 265.279 204.914,264.784 205.323,264.456 205.823 C 264.128 206.324,263.635 206.733,263.361 206.733 C 263.087 206.733,262.760 207.143,262.635 207.643 C 262.509 208.144,262.246 208.553,262.049 208.553 C 261.853 208.553,261.692 208.799,261.692 209.099 C 261.692 209.399,261.561 209.645,261.400 209.645 C 260.934 209.645,258.417 212.067,258.417 212.515 C 258.417 212.738,258.182 212.921,257.895 212.921 C 257.609 212.921,257.270 213.248,257.143 213.649 C 257.016 214.049,256.673 214.377,256.381 214.377 C 256.090 214.377,255.695 214.786,255.505 215.287 C 255.315 215.787,254.909 216.197,254.604 216.197 C 254.299 216.197,254.049 216.442,254.049 216.742 C 254.049 217.043,253.898 217.288,253.713 217.288 C 253.272 217.288,251.289 219.279,251.013 220.000 C 250.894 220.310,250.556 220.564,250.263 220.564 C 249.970 220.564,249.627 220.892,249.500 221.292 C 249.372 221.692,249.106 222.020,248.908 222.020 C 248.709 222.020,248.647 222.182,248.769 222.380 C 248.901 222.594,248.737 222.642,248.363 222.499 C 247.882 222.314,247.790 222.400,247.969 222.867 C 248.136 223.302,248.009 223.476,247.525 223.476 C 246.778 223.476,246.235 224.419,246.786 224.760 C 246.977 224.878,247.134 224.754,247.134 224.485 C 247.134 224.215,247.465 223.970,247.870 223.939 C 248.274 223.909,248.510 224.038,248.394 224.226 C 248.278 224.414,248.360 224.568,248.577 224.568 C 248.794 224.568,249.122 224.963,249.306 225.447 C 249.489 225.930,249.977 226.432,250.389 226.563 C 250.800 226.694,251.137 227.039,251.137 227.331 C 251.137 227.623,251.513 228.004,251.972 228.179 C 252.432 228.354,253.783 229.495,254.975 230.715 C 256.167 231.936,257.342 232.935,257.585 232.937 C 257.828 232.938,258.202 233.267,258.417 233.667 C 258.631 234.067,259.027 234.395,259.297 234.395 C 259.567 234.395,259.873 234.722,259.978 235.123 C 260.083 235.523,260.418 235.851,260.724 235.851 C 261.029 235.851,261.382 236.175,261.508 236.572 C 261.634 236.969,262.260 237.542,262.898 237.846 C 263.536 238.150,264.386 238.889,264.786 239.489 C 265.187 240.089,265.715 240.581,265.960 240.581 C 266.206 240.582,266.943 241.172,267.598 241.893 C 268.254 242.614,269.240 243.437,269.791 243.722 C 270.341 244.007,270.792 244.420,270.792 244.639 C 270.792 245.192,273.909 248.126,274.796 248.408 C 275.196 248.535,275.523 248.873,275.523 249.160 C 275.523 249.447,275.758 249.682,276.045 249.682 C 276.331 249.682,276.670 250.009,276.797 250.409 C 276.924 250.810,277.278 251.137,277.584 251.137 C 277.889 251.137,278.225 251.465,278.329 251.865 C 278.434 252.266,278.741 252.593,279.011 252.593 C 279.572 252.593,280.346 253.837,279.999 254.183 C 279.873 254.310,279.900 254.413,280.060 254.413 C 280.220 254.413,281.434 253.351,282.759 252.053 C 293.848 241.187,297.505 237.671,297.719 237.671 C 297.855 237.671,298.185 237.261,298.453 236.761 C 298.721 236.260,299.053 235.851,299.191 235.851 C 299.554 235.851,303.185 232.165,303.185 231.795 C 303.185 231.624,303.353 231.483,303.558 231.483 C 304.013 231.483,317.015 218.433,317.015 217.977 C 317.015 217.798,317.233 217.652,317.500 217.652 C 317.766 217.652,318.204 217.243,318.471 216.742 C 318.739 216.242,319.135 215.823,319.352 215.810 C 319.568 215.798,320.318 215.071,321.019 214.195 C 321.720 213.318,322.498 212.591,322.748 212.579 C 322.998 212.567,323.203 212.416,323.203 212.244 C 323.203 212.071,326.500 208.595,330.531 204.519 C 334.561 200.442,338.181 196.489,338.575 195.733 C 338.969 194.977,339.438 194.359,339.618 194.359 C 339.798 194.359,339.945 194.107,339.945 193.800 C 339.945 193.492,340.178 192.878,340.463 192.435 C 341.050 191.520,341.976 187.168,341.652 186.844 C 341.007 186.200,283.706 186.312,282.712 186.960 M245.364 225.417 C 245.060 225.783,245.090 225.902,245.486 225.902 C 245.775 225.902,246.094 225.684,246.197 225.417 C 246.299 225.150,246.244 224.932,246.075 224.932 C 245.906 224.932,245.586 225.150,245.364 225.417 M180.406 242.645 C 179.966 243.085,180.154 243.858,180.700 243.858 C 180.996 243.858,181.491 244.349,181.802 244.950 C 182.112 245.551,182.598 246.042,182.881 246.042 C 183.816 246.042,183.813 245.404,182.874 244.789 C 182.366 244.456,181.799 243.783,181.612 243.293 C 181.275 242.405,180.866 242.185,180.406 242.645 M184.531 247.498 C 184.531 247.902,184.774 248.226,185.077 248.226 C 185.381 248.226,185.623 247.902,185.623 247.498 C 185.623 247.093,185.381 246.770,185.077 246.770 C 184.774 246.770,184.531 247.093,184.531 247.498 M186.948 249.206 C 186.538 249.616,186.698 250.045,187.261 250.045 C 187.561 250.045,187.807 249.891,187.807 249.703 C 187.807 249.244,187.239 248.915,186.948 249.206 M147.918 276.926 C 148.688 277.794,148.863 277.873,148.863 277.356 C 148.863 277.163,148.494 276.811,148.044 276.575 C 147.229 276.148,147.228 276.149,147.918 276.926 " stroke="none" fill="#257da9" fill-rule="evenodd"></path><path id="path1" d="M223.912 70.919 C 223.452 71.049,225.140 71.156,227.665 71.156 C 230.190 71.156,231.877 71.049,231.414 70.919 C 230.952 70.789,229.263 70.682,227.662 70.682 C 226.060 70.682,224.373 70.789,223.912 70.919 M233.095 71.601 C 233.481 71.699,234.025 72.008,234.304 72.287 C 234.583 72.565,235.107 72.793,235.468 72.793 C 235.830 72.793,236.330 73.039,236.579 73.339 C 236.828 73.640,237.186 73.885,237.376 73.885 C 238.036 73.885,241.620 77.258,241.824 78.073 C 241.937 78.524,242.360 78.980,242.762 79.085 C 243.890 79.380,243.654 80.714,242.220 82.147 C 241.520 82.848,240.946 83.513,240.946 83.625 C 240.946 84.014,238.629 85.896,238.151 85.896 C 237.881 85.896,237.671 86.295,237.671 86.806 C 237.671 87.372,237.464 87.716,237.125 87.716 C 236.821 87.716,236.579 88.040,236.579 88.444 C 236.579 88.844,236.403 89.172,236.189 89.172 C 235.685 89.172,234.759 90.098,234.759 90.602 C 234.759 90.816,234.431 90.992,234.031 90.992 C 233.631 90.992,233.303 91.214,233.303 91.485 C 233.303 91.757,231.256 94.064,228.753 96.612 C 226.251 99.160,224.204 101.401,224.204 101.593 C 224.204 102.091,218.564 107.734,218.067 107.734 C 217.839 107.734,217.652 107.898,217.652 108.098 C 217.652 108.298,216.997 109.136,216.197 109.962 C 215.396 110.787,214.741 111.670,214.741 111.925 C 214.741 112.180,214.511 112.476,214.230 112.584 C 213.453 112.882,212.193 112.445,212.193 111.877 C 212.193 111.601,212.043 111.374,211.860 111.374 C 211.677 111.374,210.817 110.709,209.949 109.897 C 209.081 109.085,207.921 108.250,207.370 108.042 C 206.820 107.834,206.369 107.496,206.369 107.292 C 206.369 106.495,203.443 103.964,203.015 104.392 C 202.708 104.699,202.889 105.078,203.725 105.877 C 204.343 106.467,204.758 107.040,204.648 107.150 C 204.539 107.260,204.885 107.516,205.418 107.719 C 205.952 107.921,206.492 108.357,206.618 108.687 C 206.745 109.017,208.051 110.482,209.521 111.942 C 210.990 113.402,212.193 114.773,212.193 114.987 C 212.193 115.202,212.435 115.378,212.730 115.378 C 213.026 115.378,213.536 115.787,213.864 116.288 C 214.192 116.788,214.687 117.197,214.965 117.197 C 215.242 117.197,215.469 117.443,215.469 117.743 C 215.469 118.044,215.642 118.289,215.854 118.289 C 216.066 118.289,216.138 118.453,216.015 118.653 C 215.891 118.854,215.983 119.017,216.220 119.017 C 216.667 119.017,220.173 122.633,220.190 123.112 C 220.196 123.262,220.528 123.385,220.928 123.385 C 221.328 123.385,221.659 123.590,221.662 123.840 C 221.666 124.090,222.075 124.681,222.572 125.152 C 223.069 125.623,223.476 126.156,223.476 126.335 C 223.476 126.514,223.681 126.668,223.931 126.677 C 224.181 126.687,224.877 127.270,225.478 127.975 C 226.575 129.263,227.162 129.861,229.845 132.428 C 230.646 133.195,231.542 134.176,231.837 134.610 C 232.132 135.044,232.656 135.488,233.002 135.598 C 233.347 135.707,233.731 136.116,233.855 136.506 C 233.979 136.896,234.397 137.216,234.783 137.216 C 235.170 137.216,235.487 137.427,235.487 137.686 C 235.487 137.944,236.142 138.758,236.943 139.494 C 237.743 140.230,238.399 140.907,238.399 140.998 C 238.399 141.676,240.793 143.403,241.733 143.403 C 242.454 143.403,242.770 143.558,242.660 143.858 C 242.568 144.108,242.309 144.272,242.084 144.222 C 241.859 144.172,241.674 144.200,241.674 144.285 C 241.674 144.590,243.922 146.679,244.250 146.679 C 244.435 146.679,244.586 146.849,244.586 147.057 C 244.586 147.866,247.525 150.437,247.956 150.005 C 248.628 149.334,249.048 149.528,248.827 150.409 C 248.669 151.038,249.042 151.691,250.425 153.211 C 251.586 154.488,252.229 154.974,252.229 154.576 C 252.229 154.236,252.478 153.958,252.782 153.958 C 253.168 153.958,253.279 154.205,253.149 154.777 C 252.940 155.692,254.395 157.769,254.678 156.961 C 254.924 156.260,255.458 156.422,255.279 157.143 C 255.094 157.889,257.372 160.510,258.205 160.510 C 258.547 160.510,258.678 160.718,258.548 161.056 C 258.433 161.356,258.520 161.601,258.742 161.601 C 258.963 161.601,259.145 161.847,259.145 162.147 C 259.145 162.448,259.390 162.693,259.691 162.693 C 259.991 162.693,260.237 162.857,260.237 163.057 C 260.237 163.258,260.564 163.421,260.965 163.421 C 261.385 163.421,261.692 163.664,261.692 163.995 C 261.692 164.642,263.609 166.697,264.212 166.697 C 264.428 166.697,264.604 166.929,264.604 167.213 C 264.604 167.496,264.727 167.783,264.877 167.850 C 265.027 167.916,265.601 168.516,266.151 169.182 C 266.702 169.848,267.152 170.297,267.152 170.180 C 267.152 170.063,268.765 171.606,270.736 173.610 C 272.708 175.613,274.509 177.252,274.740 177.252 C 274.970 177.252,275.159 177.471,275.159 177.740 C 275.159 178.290,277.488 180.528,278.061 180.528 C 278.267 180.528,278.435 180.773,278.435 181.074 C 278.435 181.374,278.599 181.620,278.799 181.620 C 278.999 181.620,279.163 181.865,279.163 182.166 C 279.163 182.466,279.409 182.712,279.709 182.712 C 280.009 182.712,280.255 182.875,280.255 183.076 C 280.255 183.276,280.571 183.439,280.957 183.439 C 281.398 183.439,281.703 183.732,281.776 184.222 C 282.092 186.347,281.022 186.269,312.739 186.461 L 341.765 186.637 341.765 184.977 C 341.765 182.289,341.019 178.781,340.099 177.141 C 339.628 176.301,338.991 175.063,338.685 174.390 C 338.379 173.717,337.145 172.263,335.943 171.161 C 334.741 170.058,333.758 168.930,333.758 168.654 C 333.758 168.378,333.612 168.153,333.434 168.153 C 333.004 168.153,329.390 164.548,329.390 164.119 C 329.390 163.936,329.251 163.785,329.080 163.785 C 328.674 163.785,321.383 156.494,321.383 156.089 C 321.383 155.918,321.178 155.768,320.928 155.756 C 320.678 155.744,319.900 155.017,319.199 154.140 C 318.499 153.264,317.721 152.537,317.470 152.524 C 317.220 152.512,317.015 152.362,317.015 152.190 C 317.015 151.784,313.367 148.135,312.960 148.135 C 312.788 148.135,312.647 148.012,312.646 147.862 C 312.645 147.712,312.113 147.065,311.463 146.425 C 302.362 137.457,256.961 92.119,256.961 91.999 C 256.961 91.700,249.923 84.804,249.618 84.804 C 249.453 84.804,249.310 84.600,249.301 84.349 C 249.291 84.099,248.644 83.403,247.862 82.803 C 247.080 82.202,246.432 81.534,246.423 81.317 C 246.413 81.101,245.996 80.705,245.496 80.437 C 244.995 80.169,244.586 79.831,244.586 79.687 C 244.586 79.424,241.006 75.705,240.753 75.705 C 240.680 75.705,240.161 75.273,239.600 74.744 C 239.039 74.215,237.724 73.386,236.677 72.901 C 235.630 72.415,234.678 71.865,234.562 71.678 C 234.447 71.491,233.911 71.357,233.373 71.380 C 232.645 71.411,232.573 71.468,233.095 71.601 M217.470 73.735 L 216.379 74.673 217.561 73.891 C 218.212 73.460,218.744 73.037,218.744 72.951 C 218.744 72.678,218.590 72.773,217.470 73.735 M213.571 76.808 C 213.049 77.403,212.742 77.889,212.888 77.889 C 213.229 77.889,214.839 76.046,214.657 75.864 C 214.582 75.789,214.093 76.213,213.571 76.808 M143.510 86.374 C 140.065 89.814,133.951 95.823,129.923 99.727 C 117.593 111.675,97.907 131.595,97.907 132.124 C 97.907 132.322,97.733 132.484,97.520 132.484 C 97.077 132.484,84.691 144.867,84.912 145.088 C 84.992 145.168,86.188 144.171,87.570 142.872 C 88.951 141.573,90.233 140.506,90.417 140.501 C 90.602 140.495,91.028 140.242,91.365 139.937 C 91.924 139.431,92.307 139.712,95.821 143.213 C 97.935 145.319,99.825 147.043,100.021 147.043 C 100.217 147.043,100.904 147.534,101.547 148.135 C 102.190 148.735,102.768 149.227,102.831 149.227 C 103.109 149.227,105.187 151.499,105.187 151.802 C 105.187 151.987,105.514 152.138,105.914 152.138 C 106.319 152.138,106.642 152.381,106.642 152.684 C 106.642 152.985,106.888 153.230,107.188 153.230 C 107.489 153.230,107.734 153.476,107.734 153.776 C 107.734 154.076,107.980 154.322,108.280 154.322 C 108.581 154.322,108.826 154.498,108.826 154.712 C 108.826 155.298,109.612 155.971,111.306 156.835 C 112.144 157.263,112.830 157.773,112.830 157.969 C 112.830 158.449,114.187 159.782,114.676 159.782 C 115.212 159.782,115.847 160.499,116.384 161.712 C 116.643 162.298,117.300 162.894,117.926 163.112 C 118.647 163.363,119.017 163.739,119.017 164.219 C 119.017 164.639,119.324 165.026,119.745 165.136 C 120.146 165.240,120.473 165.471,120.473 165.648 C 120.473 165.824,120.799 165.969,121.197 165.969 C 122.040 165.969,123.385 167.018,123.385 167.675 C 123.385 168.285,124.746 168.979,125.303 168.653 C 125.549 168.509,125.450 168.735,125.082 169.155 C 124.434 169.895,124.434 169.914,125.082 169.791 C 125.450 169.721,125.874 169.652,126.024 169.637 C 126.174 169.621,126.297 169.262,126.297 168.838 C 126.297 168.247,126.466 168.112,127.025 168.258 C 127.425 168.363,127.773 168.300,127.798 168.119 C 127.823 167.937,127.864 167.619,127.889 167.412 C 127.949 166.918,128.910 166.331,129.282 166.561 C 129.442 166.659,129.572 166.422,129.572 166.033 C 129.572 165.632,129.888 165.244,130.300 165.136 C 130.701 165.031,131.036 164.725,131.045 164.456 C 131.054 164.187,131.702 163.476,132.484 162.875 C 133.266 162.275,133.914 161.598,133.923 161.371 C 133.932 161.144,134.280 160.870,134.695 160.761 C 135.110 160.652,135.539 160.224,135.647 159.809 C 135.756 159.393,136.076 159.054,136.360 159.054 C 136.643 159.054,136.981 158.767,137.110 158.417 C 137.240 158.066,139.036 156.109,141.102 154.066 C 143.168 152.024,144.859 150.181,144.859 149.972 C 144.859 149.762,145.010 149.591,145.195 149.591 C 145.632 149.591,147.771 147.452,147.771 147.015 C 147.771 146.830,147.957 146.679,148.185 146.679 C 148.571 146.679,150.152 145.112,155.435 139.490 C 156.611 138.239,157.742 137.216,157.949 137.216 C 158.156 137.216,158.326 136.888,158.326 136.488 C 158.326 136.087,158.466 135.760,158.637 135.760 C 158.808 135.760,159.389 135.350,159.929 134.850 C 160.469 134.349,161.066 133.940,161.256 133.940 C 161.446 133.940,161.601 133.694,161.601 133.394 C 161.601 133.094,161.847 132.848,162.147 132.848 C 162.483 132.848,162.693 132.507,162.693 131.963 C 162.693 131.405,162.956 130.994,163.403 130.852 C 163.793 130.728,164.213 130.308,164.337 129.918 C 164.461 129.528,164.786 129.208,165.059 129.208 C 165.332 129.208,165.660 128.881,165.787 128.480 C 165.914 128.080,166.253 127.753,166.540 127.753 C 166.826 127.753,167.061 127.507,167.061 127.207 C 167.061 126.906,167.236 126.661,167.451 126.661 C 167.948 126.661,168.671 125.932,168.978 125.120 C 169.110 124.773,169.872 124.036,170.673 123.482 C 171.474 122.928,172.135 122.270,172.143 122.020 C 172.150 121.770,172.402 121.565,172.702 121.565 C 173.003 121.565,173.248 121.330,173.248 121.044 C 173.248 120.757,173.576 120.418,173.976 120.291 C 174.377 120.164,174.704 119.888,174.704 119.678 C 174.704 119.468,175.846 118.170,177.242 116.794 C 179.530 114.537,180.207 113.194,179.057 113.194 C 178.892 113.194,178.659 112.886,178.540 112.509 C 178.251 111.599,177.261 110.497,176.251 109.962 C 175.801 109.724,175.432 109.289,175.432 108.995 C 175.432 108.702,175.108 108.462,174.711 108.462 C 174.246 108.462,173.909 108.140,173.762 107.552 C 173.636 107.052,173.300 106.642,173.016 106.642 C 172.731 106.642,172.403 106.397,172.288 106.096 C 172.173 105.796,171.916 105.551,171.717 105.551 C 171.518 105.551,170.608 104.813,169.694 103.913 C 168.781 103.012,167.814 102.275,167.547 102.275 C 167.280 102.275,167.053 101.988,167.044 101.638 C 167.035 101.288,166.387 100.510,165.605 99.909 C 164.823 99.308,164.175 98.612,164.166 98.362 C 164.157 98.112,163.822 97.907,163.421 97.907 C 163.012 97.907,162.693 97.665,162.693 97.353 C 162.693 97.049,162.284 96.613,161.783 96.385 C 161.283 96.157,160.874 95.836,160.874 95.672 C 160.874 95.508,160.218 95.040,159.418 94.631 C 158.617 94.223,157.962 93.666,157.962 93.393 C 157.962 93.120,157.634 92.811,157.234 92.706 C 156.833 92.601,156.506 92.255,156.506 91.936 C 156.506 91.617,156.286 91.356,156.017 91.356 C 155.269 91.356,153.594 89.775,153.594 89.069 C 153.594 88.691,153.313 88.444,152.881 88.444 C 152.488 88.444,151.994 88.239,151.782 87.989 C 151.570 87.739,151.113 87.190,150.767 86.769 C 150.420 86.348,149.604 85.730,148.954 85.395 C 147.547 84.670,147.446 83.809,148.598 82.376 C 150.205 80.378,150.404 80.073,150.090 80.095 C 149.915 80.108,146.954 82.933,143.510 86.374 M204.354 86.696 C 202.703 88.426,202.676 88.481,204.038 87.333 C 205.325 86.249,206.599 84.804,206.268 84.804 C 206.209 84.804,205.347 85.656,204.354 86.696 M198.323 92.725 C 195.783 95.316,195.081 96.345,195.348 97.088 C 195.627 97.867,196.085 97.586,195.941 96.724 C 195.838 96.107,196.470 95.210,198.502 93.085 C 199.985 91.533,201.093 90.266,200.963 90.268 C 200.834 90.271,199.646 91.376,198.323 92.725 M198.726 100.989 C 198.726 101.315,198.940 101.442,199.272 101.315 C 199.603 101.188,199.818 101.313,199.818 101.633 C 199.818 102.155,200.919 103.367,201.394 103.367 C 202.000 103.367,201.540 102.308,200.549 101.425 C 199.329 100.338,198.726 100.194,198.726 100.989 M180.684 112.622 C 180.298 112.904,180.065 113.216,180.165 113.316 C 180.265 113.416,180.662 113.268,181.048 112.986 C 181.433 112.704,181.667 112.392,181.567 112.291 C 181.466 112.191,181.069 112.340,180.684 112.622 M82.466 147.090 C 82.081 147.464,81.938 147.771,82.148 147.771 C 82.568 147.771,83.539 146.738,83.309 146.535 C 83.231 146.466,82.851 146.715,82.466 147.090 M62.473 168.176 C 62.102 168.537,61.884 169.048,61.989 169.312 C 62.141 169.691,62.187 169.685,62.210 169.285 C 62.225 169.007,62.525 168.570,62.875 168.314 C 63.225 168.058,63.430 167.774,63.330 167.684 C 63.230 167.593,62.844 167.814,62.473 168.176 M60.483 172.552 C 60.220 172.974,60.074 173.389,60.159 173.475 C 60.412 173.727,61.227 172.579,61.089 172.165 C 61.019 171.956,60.747 172.130,60.483 172.552 M59.740 175.857 C 59.713 176.191,59.585 176.765,59.455 177.131 C 59.273 177.646,59.322 177.704,59.668 177.385 C 59.914 177.158,60.043 176.585,59.953 176.111 C 59.863 175.638,59.767 175.523,59.740 175.857 M307.188 228.207 C 305.385 230.009,303.746 231.483,303.547 231.483 C 303.348 231.483,303.185 231.624,303.185 231.795 C 303.185 232.165,299.554 235.851,299.191 235.851 C 299.053 235.851,298.721 236.260,298.453 236.761 C 298.185 237.261,297.857 237.671,297.723 237.671 C 297.436 237.671,285.844 248.925,277.947 256.870 C 250.101 284.886,241.373 293.722,241.546 293.722 C 241.656 293.722,242.294 293.175,242.962 292.507 C 243.630 291.838,244.677 290.896,245.288 290.414 C 245.899 289.931,246.401 289.331,246.403 289.081 C 246.404 288.831,246.576 288.626,246.785 288.626 C 246.994 288.626,247.526 288.280,247.968 287.858 C 249.140 286.738,252.599 284.132,252.694 284.298 C 252.739 284.376,252.957 284.768,253.178 285.168 C 253.400 285.569,253.880 285.955,254.244 286.027 C 254.984 286.172,255.869 286.944,255.869 287.445 C 255.869 287.982,257.508 289.354,258.150 289.354 C 258.871 289.354,262.056 292.504,262.056 293.216 C 262.056 293.494,262.319 293.722,262.641 293.722 C 262.962 293.722,263.548 294.131,263.941 294.631 C 264.335 295.132,264.962 295.541,265.334 295.541 C 265.717 295.541,266.123 295.897,266.269 296.360 C 266.656 297.585,267.955 298.804,268.881 298.811 C 269.331 298.814,269.700 299.022,269.700 299.272 C 269.700 299.780,271.994 301.729,272.592 301.729 C 272.803 301.729,272.975 302.056,272.975 302.457 C 272.975 302.857,273.127 303.185,273.311 303.185 C 273.749 303.185,275.887 305.323,275.887 305.760 C 275.887 305.945,276.215 306.096,276.615 306.096 C 277.024 306.096,277.343 306.339,277.343 306.650 C 277.343 306.955,277.753 307.391,278.253 307.619 C 278.753 307.847,279.163 308.167,279.163 308.331 C 279.163 308.495,279.818 308.964,280.619 309.372 C 281.419 309.781,282.075 310.357,282.075 310.653 C 282.075 310.950,282.385 311.192,282.764 311.192 C 283.535 311.192,284.086 312.160,283.437 312.376 C 283.199 312.455,283.286 312.616,283.640 312.752 C 284.027 312.900,284.258 312.812,284.258 312.515 C 284.258 312.254,284.504 312.041,284.804 312.041 C 285.452 312.041,285.444 311.990,284.987 313.191 C 284.746 313.825,284.746 314.070,284.987 313.921 C 285.187 313.798,285.350 313.461,285.350 313.172 C 285.350 312.884,285.547 312.689,285.788 312.739 C 286.029 312.789,286.234 312.503,286.243 312.103 C 286.253 311.704,286.506 311.367,286.806 311.355 C 287.737 311.317,288.626 310.774,288.626 310.243 C 288.626 309.964,288.760 309.736,288.924 309.736 C 289.089 309.736,289.785 309.250,290.471 308.655 C 292.141 307.210,292.138 307.213,294.579 304.674 C 295.751 303.454,296.866 302.457,297.057 302.457 C 297.248 302.457,297.303 302.293,297.179 302.093 C 297.056 301.893,297.292 301.729,297.704 301.729 C 298.116 301.729,298.434 301.606,298.410 301.456 C 298.291 300.705,298.507 300.273,298.999 300.273 C 299.299 300.273,299.545 300.027,299.545 299.727 C 299.545 299.427,299.712 299.181,299.917 299.181 C 300.121 299.181,301.116 298.362,302.128 297.361 C 303.139 296.360,304.118 295.541,304.304 295.541 C 304.489 295.541,304.641 295.214,304.641 294.813 C 304.641 294.413,304.792 294.086,304.976 294.086 C 305.445 294.086,310.828 288.744,310.828 288.278 C 310.828 288.069,311.156 287.898,311.556 287.898 C 311.960 287.898,312.284 287.655,312.284 287.352 C 312.284 287.052,312.519 286.806,312.805 286.806 C 313.092 286.806,313.431 286.478,313.558 286.078 C 313.685 285.677,314.106 285.180,314.492 284.973 C 314.879 284.766,315.196 284.357,315.196 284.064 C 315.196 283.770,315.429 283.530,315.714 283.530 C 316.159 283.530,318.471 281.539,318.471 281.155 C 318.471 280.802,320.244 279.163,320.627 279.163 C 320.866 279.163,320.961 278.999,320.837 278.799 C 320.713 278.599,320.786 278.435,320.998 278.435 C 321.210 278.435,321.383 278.189,321.383 277.889 C 321.383 277.586,321.707 277.343,322.111 277.343 C 322.511 277.343,322.839 277.125,322.839 276.859 C 322.839 276.592,323.248 276.155,323.749 275.887 C 324.249 275.619,324.659 275.100,324.659 274.734 C 324.659 274.367,324.910 274.067,325.216 274.067 C 325.523 274.067,325.868 273.822,325.983 273.521 C 326.098 273.221,326.421 272.975,326.700 272.975 C 326.978 272.975,327.207 272.821,327.207 272.631 C 327.207 272.216,331.586 267.880,332.006 267.880 C 332.169 267.880,332.302 267.634,332.302 267.334 C 332.302 267.034,332.537 266.788,332.824 266.788 C 333.110 266.788,333.449 266.460,333.576 266.060 C 333.703 265.659,334.124 265.162,334.511 264.955 C 334.897 264.748,335.214 264.339,335.214 264.045 C 335.214 263.752,335.541 263.512,335.942 263.512 C 336.342 263.512,336.670 263.294,336.670 263.028 C 336.670 262.761,337.079 262.324,337.580 262.056 C 338.080 261.789,338.490 261.439,338.490 261.280 C 338.490 261.121,339.186 260.314,340.036 259.486 C 340.887 258.658,341.297 258.074,340.946 258.187 C 340.596 258.301,340.309 258.235,340.309 258.041 C 340.309 257.847,340.498 257.689,340.728 257.689 C 340.958 257.689,340.426 257.171,339.545 256.538 C 338.664 255.905,337.889 255.249,337.822 255.082 C 337.756 254.914,337.563 254.777,337.395 254.777 C 336.980 254.777,334.850 252.621,334.850 252.201 C 334.850 252.017,334.586 251.865,334.264 251.865 C 333.622 251.865,330.482 248.857,330.482 248.243 C 330.482 248.033,330.273 247.862,330.017 247.862 C 329.762 247.862,328.632 246.977,327.507 245.896 C 326.382 244.815,325.117 243.822,324.696 243.688 C 324.275 243.554,323.931 243.228,323.931 242.963 C 323.931 242.697,323.685 242.386,323.385 242.271 C 323.085 242.155,322.839 241.822,322.839 241.529 C 322.839 241.236,322.470 240.945,322.020 240.881 C 321.494 240.806,321.160 240.472,321.085 239.945 C 321.021 239.495,320.729 239.126,320.436 239.126 C 320.144 239.126,319.810 238.881,319.695 238.581 C 319.580 238.280,319.259 238.035,318.981 238.035 C 318.704 238.035,318.273 237.707,318.023 237.307 C 317.773 236.906,317.454 236.579,317.315 236.579 C 317.054 236.579,316.178 235.835,313.453 233.299 C 312.594 232.501,311.648 231.847,311.351 231.847 C 311.041 231.847,310.717 231.381,310.591 230.755 C 310.471 230.155,310.154 229.663,309.885 229.663 C 308.465 229.663,308.527 227.563,309.992 226.099 C 310.812 225.279,311.007 224.932,310.648 224.932 C 310.548 224.932,308.992 226.406,307.188 228.207 M343.035 255.875 C 342.910 256.078,342.672 256.161,342.506 256.059 C 342.341 255.957,342.103 256.141,341.977 256.469 C 341.501 257.710,342.545 257.496,343.232 256.213 C 343.618 255.491,343.451 255.203,343.035 255.875 M239.796 295.177 C 239.138 295.778,238.709 296.269,238.841 296.269 C 238.973 296.269,239.620 295.778,240.277 295.177 C 240.935 294.577,241.364 294.086,241.232 294.086 C 241.100 294.086,240.453 294.577,239.796 295.177 M236.302 298.696 C 236.049 298.797,235.671 299.235,235.463 299.668 C 235.137 300.342,235.153 300.377,235.574 299.909 C 235.845 299.609,236.296 299.158,236.577 298.908 C 237.113 298.431,237.060 298.390,236.302 298.696 M224.540 310.694 C 223.699 311.607,223.695 311.629,224.470 311.157 C 224.916 310.884,225.362 310.453,225.459 310.199 C 225.720 309.520,225.525 309.624,224.540 310.694 M222.384 312.586 C 221.560 313.390,221.549 313.434,222.273 313.059 C 222.712 312.831,223.179 312.470,223.310 312.258 C 223.758 311.533,223.296 311.697,222.384 312.586 M220.651 314.346 C 220.398 314.448,220.021 314.885,219.812 315.318 C 219.487 315.993,219.503 316.027,219.924 315.560 C 220.194 315.259,220.645 314.809,220.927 314.559 C 221.463 314.082,221.410 314.041,220.651 314.346 M216.283 318.714 C 216.031 318.816,215.653 319.253,215.444 319.686 C 215.119 320.360,215.135 320.395,215.556 319.927 C 215.827 319.627,216.278 319.177,216.559 318.926 C 217.095 318.449,217.042 318.408,216.283 318.714 M207.984 327.298 L 206.915 328.480 208.098 327.411 C 208.749 326.823,209.281 326.291,209.281 326.229 C 209.281 325.947,208.981 326.195,207.984 327.298 M200.889 334.040 L 198.908 336.123 200.902 334.304 C 201.999 333.303,202.968 332.443,203.056 332.393 C 203.143 332.343,203.137 332.224,203.042 332.129 C 202.947 332.034,201.978 332.894,200.889 334.040 M193.085 341.765 C 192.099 342.766,191.385 343.585,191.498 343.585 C 191.733 343.585,193.026 342.370,194.331 340.923 C 195.820 339.273,194.982 339.839,193.085 341.765 M150.830 344.495 C 151.370 344.995,151.999 345.405,152.228 345.405 C 152.457 345.405,152.089 344.995,151.410 344.495 C 150.732 343.995,150.103 343.585,150.013 343.585 C 149.922 343.585,150.290 343.995,150.830 344.495 M190.060 344.327 C 189.621 344.735,189.263 345.173,189.263 345.301 C 189.263 345.428,189.672 345.147,190.173 344.677 C 191.026 343.875,191.238 343.585,190.969 343.585 C 190.907 343.585,190.498 343.919,190.060 344.327 M186.078 347.267 C 184.911 348.014,184.635 348.329,185.168 348.304 C 185.470 348.289,187.735 346.498,187.443 346.505 C 187.343 346.507,186.729 346.850,186.078 347.267 M180.528 349.955 C 180.027 350.241,179.782 350.475,179.982 350.475 C 180.182 350.475,180.755 350.241,181.256 349.955 C 181.756 349.668,182.002 349.434,181.802 349.434 C 181.601 349.434,181.028 349.668,180.528 349.955 M164.695 351.043 C 165.696 351.338,167.006 351.561,167.607 351.540 C 168.756 351.499,168.217 351.368,164.331 350.743 C 163.056 350.537,163.101 350.575,164.695 351.043 M176.160 351.062 C 174.785 351.378,174.500 351.524,175.250 351.529 C 175.851 351.533,176.997 351.320,177.798 351.057 C 179.627 350.454,178.790 350.457,176.160 351.062 " stroke="none" fill="#ae2c7c" fill-rule="evenodd"></path><path id="path2" d="M222.343 11.057 C 221.220 11.281,220.074 11.637,219.796 11.847 C 219.518 12.057,218.553 12.595,217.652 13.042 C 216.491 13.619,210.409 19.469,196.764 33.133 C 186.176 43.736,177.458 52.411,177.391 52.411 C 177.324 52.411,174.522 55.179,171.164 58.561 C 155.848 73.990,150.318 79.650,150.318 79.900 C 150.318 80.048,151.959 78.551,153.964 76.573 C 155.968 74.594,157.770 72.921,157.967 72.854 C 158.164 72.787,158.326 72.603,158.326 72.444 C 158.326 72.067,162.748 67.698,163.130 67.698 C 163.290 67.698,163.421 67.551,163.421 67.371 C 163.421 66.917,166.974 63.330,167.423 63.330 C 167.624 63.330,167.789 63.189,167.789 63.015 C 167.789 62.716,177.588 52.775,177.883 52.775 C 177.961 52.775,186.708 44.086,197.321 33.465 C 207.934 22.844,216.973 14.000,217.408 13.812 C 217.843 13.623,218.444 13.328,218.744 13.157 C 221.519 11.574,222.086 11.465,227.517 11.475 C 232.077 11.483,232.988 11.578,233.577 12.111 C 233.958 12.457,234.683 12.739,235.188 12.739 C 235.693 12.739,236.868 13.148,237.798 13.649 C 238.729 14.149,240.255 14.970,241.191 15.473 C 243.045 16.470,244.984 17.840,246.406 19.157 C 247.235 19.925,248.326 20.906,250.306 22.666 C 250.720 23.034,251.290 23.213,251.631 23.082 C 252.537 22.734,252.350 22.317,251.183 22.084 C 250.608 21.969,249.503 21.238,248.727 20.461 C 247.043 18.773,243.618 16.063,242.590 15.605 C 242.187 15.425,241.283 14.931,240.582 14.508 C 238.049 12.979,236.758 12.375,236.020 12.375 C 235.607 12.375,235.089 12.195,234.869 11.976 C 233.736 10.842,226.187 10.288,222.343 11.057 M87.568 80.382 C 87.459 80.558,86.948 80.656,86.431 80.600 C 85.658 80.515,85.568 80.587,85.921 81.013 C 86.268 81.431,86.199 81.529,85.555 81.529 C 85.119 81.529,84.850 81.672,84.958 81.847 C 85.066 82.022,84.480 82.718,83.655 83.394 C 82.830 84.070,75.708 91.010,67.828 98.817 C 59.949 106.624,52.929 113.558,52.228 114.225 C 51.528 114.893,50.955 115.589,50.955 115.772 C 50.955 115.956,50.710 116.106,50.409 116.106 C 50.109 116.106,49.864 116.246,49.864 116.418 C 49.864 116.728,46.262 120.473,45.964 120.473 C 45.736 120.473,44.768 121.478,44.768 121.714 C 44.768 122.062,36.726 129.936,36.371 129.936 C 36.185 129.936,36.033 130.086,36.033 130.269 C 36.033 130.650,34.207 132.521,32.272 134.122 C 31.547 134.722,30.949 135.340,30.945 135.495 C 30.935 135.873,27.220 139.399,26.833 139.399 C 26.664 139.399,26.629 139.564,26.753 139.766 C 26.878 139.968,26.683 140.245,26.320 140.383 C 25.663 140.631,24.750 141.390,24.750 141.686 C 24.750 141.986,19.181 147.407,18.873 147.407 C 18.702 147.407,18.562 147.593,18.562 147.820 C 18.562 148.306,16.861 149.955,16.360 149.955 C 16.170 149.955,16.015 150.112,16.015 150.304 C 16.015 150.735,13.164 153.594,12.735 153.594 C 12.564 153.594,12.320 153.922,12.193 154.322 C 12.066 154.722,11.727 155.050,11.440 155.050 C 11.154 155.050,10.919 155.223,10.919 155.435 C 10.919 155.862,8.735 157.962,8.290 157.962 C 8.135 157.962,8.007 158.213,8.007 158.519 C 8.007 158.826,7.639 159.225,7.188 159.406 C 6.738 159.587,6.533 159.746,6.733 159.759 C 6.934 159.772,6.688 160.151,6.187 160.602 C 4.957 161.710,3.640 163.630,3.640 164.316 C 3.640 164.625,3.476 164.877,3.276 164.877 C 3.076 164.877,2.912 165.098,2.912 165.367 C 2.912 165.637,2.584 166.235,2.184 166.697 C 1.783 167.159,1.456 168.025,1.456 168.623 C 1.456 169.239,1.179 169.913,0.819 170.176 C -0.147 170.882,-0.147 188.442,0.819 190.320 C 1.169 191.001,1.456 191.830,1.456 192.162 C 1.456 192.494,1.742 193.089,2.093 193.485 C 2.443 193.881,2.783 194.444,2.848 194.737 C 2.913 195.029,3.118 195.323,3.303 195.390 C 3.488 195.456,3.640 195.907,3.640 196.391 C 3.640 196.930,3.851 197.270,4.186 197.270 C 4.486 197.270,4.732 197.498,4.732 197.777 C 4.732 198.056,4.977 198.379,5.278 198.494 C 5.578 198.609,5.823 198.957,5.823 199.267 C 5.823 199.578,14.955 208.964,26.115 220.125 C 37.275 231.287,46.856 240.960,47.407 241.621 C 47.957 242.281,48.408 242.697,48.408 242.543 C 48.408 242.202,49.361 243.224,50.726 245.027 C 51.288 245.770,52.061 246.477,52.444 246.598 C 52.826 246.719,53.139 247.053,53.139 247.340 C 53.139 247.627,53.385 247.862,53.685 247.862 C 53.985 247.862,54.231 248.107,54.231 248.408 C 54.231 248.708,54.441 248.954,54.699 248.954 C 54.956 248.954,55.456 249.445,55.811 250.045 C 56.166 250.646,56.611 251.137,56.799 251.137 C 57.266 251.137,58.416 252.320,58.719 253.111 C 58.855 253.465,59.293 253.840,59.692 253.944 C 60.092 254.049,60.419 254.288,60.419 254.476 C 60.419 254.893,64.049 258.417,64.479 258.417 C 64.648 258.417,64.786 258.554,64.786 258.721 C 64.786 259.069,66.800 261.163,69.282 263.396 C 70.213 264.233,70.974 265.056,70.974 265.227 C 70.974 265.665,73.378 267.880,73.854 267.880 C 74.071 267.880,74.249 268.126,74.249 268.426 C 74.249 268.726,74.460 268.972,74.717 268.972 C 74.974 268.972,75.475 269.463,75.829 270.064 C 76.184 270.664,76.629 271.156,76.818 271.156 C 77.284 271.156,78.434 272.338,78.738 273.129 C 78.873 273.483,79.311 273.858,79.711 273.962 C 80.110 274.067,80.437 274.342,80.437 274.575 C 80.437 275.014,81.926 276.465,82.271 276.361 C 82.379 276.329,82.788 276.782,83.181 277.368 C 83.573 277.953,84.017 278.433,84.167 278.434 C 84.318 278.434,84.768 278.763,85.168 279.163 C 85.569 279.563,85.808 279.891,85.700 279.891 C 85.475 279.891,87.695 282.064,89.664 283.772 C 90.394 284.406,90.992 285.066,90.992 285.239 C 90.992 285.682,93.393 287.898,93.872 287.898 C 94.090 287.898,94.268 288.144,94.268 288.444 C 94.268 288.744,94.487 288.990,94.755 288.990 C 95.023 288.990,95.414 289.365,95.623 289.824 C 95.832 290.283,96.586 291.057,97.298 291.546 C 98.011 292.034,98.673 292.736,98.770 293.105 C 98.866 293.474,99.285 293.864,99.700 293.973 C 100.115 294.082,100.455 294.361,100.455 294.593 C 100.455 295.032,101.945 296.483,102.289 296.379 C 102.397 296.347,102.806 296.800,103.199 297.386 C 103.591 297.972,104.035 298.452,104.186 298.452 C 104.336 298.453,104.786 298.781,105.187 299.181 C 105.587 299.581,105.815 299.909,105.694 299.909 C 105.572 299.909,106.332 300.687,107.383 301.638 C 108.434 302.589,109.639 303.750,110.061 304.218 C 112.313 306.716,114.678 309.008,115.006 309.008 C 115.210 309.008,115.378 309.186,115.378 309.403 C 115.378 309.895,119.616 314.104,120.112 314.104 C 120.310 314.104,120.473 314.242,120.473 314.411 C 120.473 314.867,124.009 318.471,124.456 318.471 C 124.668 318.471,124.841 318.727,124.841 319.039 C 124.841 319.351,125.005 319.505,125.205 319.381 C 125.405 319.258,125.569 319.357,125.569 319.602 C 125.569 320.083,129.143 323.567,129.637 323.567 C 129.801 323.567,129.936 323.813,129.936 324.113 C 129.936 324.413,130.182 324.659,130.482 324.659 C 130.783 324.659,131.028 324.835,131.028 325.051 C 131.028 325.495,139.753 334.122,140.201 334.122 C 140.361 334.122,140.491 334.320,140.491 334.562 C 140.491 335.075,143.979 338.490,144.504 338.490 C 144.699 338.490,144.859 338.703,144.859 338.964 C 144.859 340.004,149.512 343.699,152.593 345.107 C 153.144 345.359,153.594 345.696,153.594 345.858 C 153.594 346.019,153.963 346.313,154.413 346.511 C 154.864 346.709,155.723 347.185,156.324 347.568 C 156.924 347.950,157.682 348.275,158.008 348.290 C 158.334 348.305,158.804 348.562,159.054 348.863 C 159.303 349.163,159.722 349.409,159.984 349.409 C 160.247 349.409,160.923 349.601,161.487 349.836 C 167.369 352.292,180.261 351.641,183.160 348.742 C 183.394 348.508,183.806 348.317,184.076 348.317 C 186.174 348.317,189.894 344.975,209.827 325.190 C 218.035 317.043,225.118 310.133,225.569 309.833 C 226.019 309.534,226.388 309.062,226.388 308.784 C 226.388 308.507,226.547 308.280,226.742 308.280 C 226.936 308.280,228.288 307.039,229.744 305.523 C 231.201 304.006,241.401 293.691,252.411 282.600 C 279.450 255.362,279.677 255.130,279.936 254.457 C 280.229 253.697,279.656 252.593,278.968 252.593 C 278.675 252.593,278.435 252.332,278.435 252.013 C 278.435 251.694,278.113 251.349,277.719 251.246 C 277.325 251.143,276.905 250.749,276.785 250.370 C 276.664 249.991,276.331 249.682,276.045 249.682 C 275.758 249.682,275.523 249.447,275.523 249.160 C 275.523 248.873,275.196 248.535,274.796 248.408 C 273.909 248.126,270.792 245.192,270.792 244.639 C 270.792 244.420,270.341 244.007,269.791 243.722 C 269.240 243.437,268.254 242.614,267.598 241.893 C 266.943 241.172,266.206 240.582,265.960 240.581 C 265.715 240.581,265.187 240.089,264.786 239.489 C 264.386 238.889,263.536 238.150,262.898 237.846 C 262.260 237.542,261.640 236.987,261.521 236.612 C 261.402 236.236,260.982 235.845,260.588 235.742 C 260.195 235.639,259.873 235.294,259.873 234.975 C 259.873 234.656,259.633 234.395,259.339 234.395 C 259.046 234.395,258.631 234.067,258.417 233.667 C 258.202 233.267,257.828 232.938,257.585 232.937 C 257.342 232.935,256.167 231.936,254.975 230.715 C 253.783 229.495,252.432 228.354,251.972 228.179 C 251.513 228.004,251.137 227.623,251.137 227.331 C 251.137 227.039,250.800 226.694,250.389 226.563 C 249.977 226.432,249.489 225.930,249.306 225.447 C 249.122 224.963,248.794 224.568,248.577 224.568 C 248.360 224.568,248.278 224.414,248.394 224.226 C 248.510 224.038,248.274 223.909,247.870 223.939 C 247.465 223.970,247.134 224.124,247.134 224.281 C 247.134 224.620,245.770 226.033,245.472 226.003 C 245.359 225.992,244.686 226.645,243.976 227.455 C 243.266 228.265,242.539 228.838,242.362 228.728 C 242.078 228.553,241.980 228.808,242.063 229.508 C 242.086 229.709,241.304 230.470,239.455 232.046 C 238.974 232.456,238.089 233.408,237.489 234.162 C 236.888 234.915,236.192 235.756,235.942 236.029 C 235.692 236.303,235.487 236.702,235.487 236.917 C 235.487 237.131,235.159 237.307,234.759 237.307 C 234.359 237.307,234.031 237.452,234.031 237.631 C 234.031 237.809,232.639 239.359,230.937 241.076 C 229.236 242.793,227.843 244.367,227.843 244.574 C 227.843 244.781,227.687 244.950,227.496 244.950 C 226.999 244.950,222.748 249.147,222.748 249.637 C 222.748 249.862,222.595 250.045,222.408 250.045 C 221.815 250.045,218.380 253.613,218.380 254.229 C 218.380 254.554,218.217 254.719,218.018 254.596 C 217.819 254.473,217.465 254.791,217.232 255.302 C 216.998 255.814,216.506 256.233,216.138 256.233 C 215.770 256.233,215.469 256.398,215.469 256.599 C 215.469 256.800,214.764 257.660,213.904 258.510 C 213.043 259.359,212.045 260.553,211.685 261.163 C 211.326 261.773,210.474 262.654,209.793 263.121 C 209.111 263.588,208.553 264.124,208.553 264.312 C 208.553 264.499,207.980 265.194,207.279 265.854 C 206.371 266.711,206.005 267.371,206.005 268.153 C 206.005 268.972,205.635 269.585,204.550 270.566 C 203.749 271.290,203.094 272.046,203.094 272.247 C 203.094 272.447,202.848 272.611,202.548 272.611 C 202.247 272.611,202.002 272.747,202.002 272.913 C 202.002 273.078,199.463 275.811,196.360 278.987 C 193.258 282.162,190.719 284.893,190.719 285.055 C 190.719 285.217,190.473 285.350,190.173 285.350 C 189.873 285.350,189.627 285.506,189.627 285.697 C 189.627 286.200,184.657 291.063,183.506 291.687 C 179.457 293.880,177.349 294.444,173.248 294.429 C 168.941 294.414,167.116 293.928,163.021 291.701 C 161.859 291.069,156.870 286.212,156.870 285.712 C 156.870 285.513,156.624 285.350,156.324 285.350 C 156.024 285.350,155.778 285.205,155.778 285.027 C 155.778 284.609,151.417 280.255,150.999 280.255 C 150.825 280.255,150.682 280.092,150.682 279.892 C 150.682 279.467,147.042 275.887,146.609 275.887 C 146.447 275.887,146.315 275.734,146.315 275.547 C 146.315 275.247,115.729 244.508,106.505 235.538 C 104.579 233.665,103.003 231.986,103.003 231.808 C 103.003 231.629,102.867 231.483,102.701 231.483 C 102.294 231.483,96.815 226.021,96.815 225.616 C 96.815 225.440,96.663 225.296,96.476 225.296 C 96.040 225.296,90.628 219.875,90.628 219.438 C 90.628 219.257,90.483 219.108,90.306 219.108 C 89.886 219.108,82.985 212.207,82.985 211.787 C 82.985 211.610,82.839 211.465,82.662 211.465 C 82.240 211.465,76.797 206.022,76.797 205.600 C 76.797 205.423,76.652 205.278,76.474 205.278 C 76.053 205.278,70.610 199.834,70.610 199.413 C 70.610 199.235,70.462 199.090,70.282 199.090 C 69.966 199.090,65.849 194.966,63.923 192.721 C 63.408 192.120,62.773 191.383,62.511 191.083 C 62.250 190.783,61.817 190.045,61.549 189.445 C 61.281 188.844,60.916 188.107,60.738 187.807 C 59.873 186.351,58.853 181.268,59.054 179.419 C 59.438 175.876,60.241 172.945,61.564 170.251 C 61.735 169.903,61.874 169.366,61.874 169.056 C 61.874 168.747,62.114 168.402,62.407 168.290 C 62.699 168.178,63.037 167.776,63.157 167.397 C 63.454 166.463,64.498 165.242,67.516 162.299 C 68.917 160.932,70.184 159.684,70.331 159.525 C 72.992 156.650,77.237 152.502,77.519 152.502 C 77.723 152.502,77.889 152.344,77.889 152.150 C 77.889 151.677,97.062 132.484,97.535 132.484 C 97.740 132.484,97.907 132.322,97.907 132.124 C 97.907 131.925,100.732 128.902,104.186 125.406 C 118.242 111.174,119.381 109.958,119.381 109.181 C 119.381 108.454,116.694 105.551,116.022 105.551 C 115.858 105.551,115.568 105.141,115.378 104.641 C 115.187 104.140,114.811 103.731,114.542 103.731 C 113.915 103.731,111.738 101.798,111.738 101.241 C 111.738 101.009,111.582 100.819,111.391 100.819 C 110.860 100.819,107.370 97.495,107.370 96.989 C 107.370 96.743,106.879 96.444,106.278 96.324 C 105.630 96.194,105.187 95.877,105.187 95.543 C 105.187 95.233,104.750 94.781,104.216 94.538 C 102.911 93.943,101.183 92.395,101.183 91.821 C 101.183 91.565,100.937 91.356,100.637 91.356 C 100.337 91.356,100.091 91.188,100.091 90.984 C 100.091 90.780,99.685 90.427,99.188 90.201 C 98.691 89.975,98.192 89.495,98.078 89.135 C 97.963 88.776,97.569 88.386,97.202 88.269 C 96.834 88.152,95.780 87.325,94.860 86.431 C 93.940 85.536,93.020 84.804,92.817 84.804 C 92.614 84.804,92.448 84.570,92.448 84.283 C 92.448 83.996,92.128 83.660,91.738 83.536 C 91.348 83.413,90.928 82.992,90.804 82.602 C 90.680 82.212,90.344 81.893,90.057 81.893 C 89.771 81.893,89.536 81.628,89.536 81.304 C 89.536 80.895,89.314 80.774,88.808 80.906 C 88.407 81.011,88.164 80.960,88.267 80.792 C 88.371 80.624,88.301 80.391,88.111 80.274 C 87.922 80.157,87.677 80.205,87.568 80.382 M241.744 143.794 C 241.816 144.010,242.030 144.186,242.220 144.186 C 242.410 144.186,242.625 144.010,242.696 143.794 C 242.768 143.579,242.554 143.403,242.220 143.403 C 241.887 143.403,241.672 143.579,241.744 143.794 M247.987 150.152 C 247.869 150.461,247.863 150.805,247.974 150.917 C 248.293 151.235,248.954 150.695,248.954 150.115 C 248.954 149.417,248.259 149.443,247.987 150.152 M252.229 154.686 C 252.229 155.554,252.788 155.652,253.100 154.838 C 253.412 154.025,253.388 153.958,252.775 153.958 C 252.472 153.958,252.229 154.282,252.229 154.686 M341.433 189.229 C 341.185 190.613,340.755 192.047,340.476 192.415 C 340.197 192.783,339.963 193.371,339.957 193.722 C 339.951 194.072,339.798 194.359,339.618 194.359 C 339.438 194.359,338.969 194.977,338.575 195.733 C 338.181 196.489,334.561 200.442,330.531 204.519 C 326.500 208.595,323.203 212.071,323.203 212.244 C 323.203 212.416,322.998 212.567,322.748 212.579 C 322.498 212.591,321.720 213.318,321.019 214.195 C 320.318 215.071,319.568 215.798,319.352 215.810 C 319.135 215.823,318.739 216.242,318.471 216.742 C 318.204 217.243,317.766 217.652,317.500 217.652 C 317.233 217.652,317.015 217.816,317.015 218.016 C 317.015 218.849,318.035 218.191,319.745 216.255 C 320.746 215.122,322.492 213.376,323.625 212.375 C 324.759 211.374,325.700 210.454,325.718 210.330 C 325.736 210.206,328.502 207.340,331.865 203.961 C 337.416 198.382,340.309 194.991,340.309 194.065 C 340.309 193.875,340.555 193.516,340.855 193.267 C 341.156 193.017,341.401 192.293,341.401 191.657 C 341.401 191.021,341.569 190.333,341.774 190.128 C 342.160 189.742,342.387 187.216,342.065 186.894 C 341.965 186.793,341.680 187.844,341.433 189.229 M314.624 220.660 C 311.853 223.522,311.834 223.998,314.599 221.303 C 315.928 220.007,317.015 218.902,317.015 218.846 C 317.015 218.416,316.196 219.038,314.624 220.660 " stroke="none" fill="#bed83d" fill-rule="evenodd"></path><path id="path3" d="M223.172 71.321 C 222.304 71.462,221.484 71.756,221.348 71.974 C 221.213 72.193,220.613 72.493,220.015 72.642 C 218.611 72.991,215.327 75.410,213.467 77.464 C 210.973 80.217,207.016 84.076,206.685 84.076 C 206.511 84.076,206.369 84.291,206.369 84.554 C 206.369 85.065,205.838 85.682,203.603 87.764 C 200.427 90.722,195.996 95.868,195.996 96.598 C 195.996 97.018,195.669 97.650,195.268 98.003 C 194.868 98.357,194.725 98.602,194.950 98.549 C 195.176 98.496,195.871 98.904,196.494 99.454 C 197.118 100.005,197.781 100.455,197.968 100.455 C 198.156 100.455,198.384 100.742,198.475 101.092 C 198.634 101.699,198.644 101.699,198.684 101.092 C 198.788 99.517,201.638 101.784,201.638 103.442 C 201.638 104.534,202.890 106.240,203.352 105.777 C 203.499 105.631,203.379 105.363,203.086 105.182 C 202.672 104.926,202.651 104.756,202.991 104.416 C 203.442 103.965,206.369 106.457,206.369 107.292 C 206.369 107.496,206.820 107.834,207.370 108.042 C 207.921 108.250,209.081 109.085,209.949 109.897 C 210.817 110.709,211.677 111.374,211.860 111.374 C 212.043 111.374,212.193 111.601,212.193 111.877 C 212.193 112.445,213.453 112.882,214.230 112.584 C 214.511 112.476,214.741 112.180,214.741 111.925 C 214.741 111.670,215.396 110.787,216.197 109.962 C 216.997 109.136,217.652 108.298,217.652 108.098 C 217.652 107.898,217.839 107.734,218.067 107.734 C 218.564 107.734,224.204 102.091,224.204 101.593 C 224.204 101.401,226.251 99.160,228.753 96.612 C 231.256 94.064,233.303 91.757,233.303 91.485 C 233.303 91.214,233.631 90.992,234.031 90.992 C 234.431 90.992,234.759 90.816,234.759 90.602 C 234.759 90.098,235.685 89.172,236.189 89.172 C 236.403 89.172,236.579 88.844,236.579 88.444 C 236.579 88.040,236.821 87.716,237.125 87.716 C 237.464 87.716,237.671 87.372,237.671 86.806 C 237.671 86.295,237.881 85.896,238.151 85.896 C 238.629 85.896,240.946 84.014,240.946 83.625 C 240.946 83.513,241.520 82.848,242.220 82.147 C 243.654 80.714,243.890 79.380,242.762 79.085 C 242.360 78.980,241.937 78.524,241.824 78.073 C 241.620 77.258,238.036 73.885,237.376 73.885 C 237.186 73.885,236.828 73.640,236.579 73.339 C 236.330 73.039,235.830 72.793,235.468 72.793 C 235.107 72.793,234.578 72.561,234.293 72.276 C 233.207 71.189,227.175 70.671,223.172 71.321 M91.879 74.340 L 90.810 75.523 91.993 74.454 C 93.095 73.458,93.343 73.157,93.062 73.157 C 92.999 73.157,92.467 73.690,91.879 74.340 M199.090 101.672 C 199.090 102.282,200.467 103.567,200.782 103.252 C 200.910 103.124,200.745 102.917,200.416 102.790 C 200.087 102.664,199.818 102.251,199.818 101.872 C 199.818 101.493,199.654 101.183,199.454 101.183 C 199.254 101.183,199.090 101.403,199.090 101.672 M205.278 108.054 C 205.278 108.519,206.348 109.333,206.612 109.069 C 206.876 108.805,206.062 107.734,205.597 107.734 C 205.421 107.734,205.278 107.878,205.278 108.054 M183.439 110.100 C 183.187 110.405,183.147 110.646,183.350 110.646 C 183.551 110.646,183.918 110.400,184.167 110.100 C 184.420 109.796,184.460 109.554,184.257 109.554 C 184.056 109.554,183.689 109.800,183.439 110.100 M209.645 112.365 C 209.645 112.823,210.685 113.731,210.930 113.486 C 211.027 113.390,210.777 113.013,210.375 112.650 C 209.974 112.286,209.645 112.158,209.645 112.365 M91.356 139.945 C 91.107 140.246,90.718 140.495,90.492 140.501 C 90.267 140.506,88.954 141.570,87.576 142.866 C 86.197 144.162,84.928 145.223,84.755 145.223 C 84.582 145.223,84.440 145.469,84.440 145.769 C 84.440 146.069,84.283 146.315,84.092 146.315 C 83.622 146.315,70.610 159.308,70.610 159.776 C 70.610 159.979,70.458 160.146,70.273 160.146 C 69.455 160.146,63.330 166.838,63.330 167.732 C 63.330 167.944,63.126 168.248,62.875 168.408 C 62.294 168.780,61.146 171.246,61.146 172.124 C 61.146 172.493,60.916 172.987,60.633 173.221 C 60.342 173.463,60.067 174.505,59.996 175.632 L 59.873 177.617 66.216 177.617 C 69.705 177.616,73.063 177.778,73.678 177.977 C 74.321 178.184,83.952 178.454,96.377 178.614 L 117.958 178.890 118.163 178.071 C 118.276 177.621,118.584 177.252,118.847 177.252 C 119.329 177.252,121.556 175.223,121.575 174.767 C 121.581 174.633,122.145 174.113,122.828 173.612 C 123.512 173.112,124.272 172.334,124.518 171.884 C 124.763 171.433,125.182 171.065,125.448 171.065 C 125.715 171.065,125.933 170.914,125.933 170.730 C 125.933 170.546,126.667 169.686,127.565 168.819 C 129.298 167.145,129.797 165.993,128.484 166.695 C 128.086 166.908,127.778 167.201,127.799 167.345 C 127.919 168.143,127.677 168.429,127.025 168.258 C 126.466 168.112,126.297 168.247,126.297 168.838 C 126.297 169.262,126.174 169.621,126.024 169.637 C 125.874 169.652,125.450 169.721,125.082 169.791 C 124.434 169.914,124.434 169.895,125.082 169.155 C 125.450 168.735,125.549 168.509,125.303 168.653 C 124.746 168.979,123.385 168.285,123.385 167.675 C 123.385 167.018,122.040 165.969,121.197 165.969 C 120.799 165.969,120.473 165.824,120.473 165.648 C 120.473 165.471,120.146 165.240,119.745 165.136 C 119.324 165.026,119.017 164.639,119.017 164.219 C 119.017 163.739,118.647 163.363,117.926 163.112 C 117.300 162.894,116.643 162.298,116.384 161.712 C 115.847 160.499,115.212 159.782,114.676 159.782 C 114.187 159.782,112.830 158.449,112.830 157.969 C 112.830 157.773,112.144 157.263,111.306 156.835 C 109.612 155.971,108.826 155.298,108.826 154.712 C 108.826 154.498,108.581 154.322,108.280 154.322 C 107.980 154.322,107.734 154.076,107.734 153.776 C 107.734 153.476,107.489 153.230,107.188 153.230 C 106.888 153.230,106.642 152.985,106.642 152.684 C 106.642 152.381,106.319 152.138,105.914 152.138 C 105.514 152.138,105.187 151.987,105.187 151.802 C 105.187 151.499,103.109 149.227,102.831 149.227 C 102.768 149.227,102.190 148.735,101.547 148.135 C 100.904 147.534,100.217 147.043,100.021 147.043 C 99.825 147.043,97.939 145.323,95.829 143.221 C 93.719 141.119,91.952 139.399,91.901 139.399 C 91.850 139.399,91.605 139.645,91.356 139.945 M136.434 158.933 C 136.104 159.021,135.748 159.424,135.642 159.828 C 135.536 160.233,135.110 160.652,134.695 160.761 C 134.280 160.870,133.940 161.103,133.940 161.280 C 133.940 161.852,134.614 161.622,135.470 160.758 C 136.431 159.787,137.368 158.670,137.169 158.732 C 137.095 158.755,136.764 158.846,136.434 158.933 M132.273 163.007 C 131.657 163.569,131.048 164.301,130.920 164.634 C 130.792 164.968,130.436 165.241,130.130 165.241 C 129.793 165.241,129.574 165.566,129.575 166.060 C 129.578 166.810,129.685 166.767,130.849 165.538 C 131.548 164.801,132.120 164.023,132.120 163.810 C 132.120 163.596,132.296 163.421,132.510 163.421 C 132.919 163.421,133.940 162.531,133.940 162.173 C 133.940 161.732,133.350 162.027,132.273 163.007 M153.294 214.721 C 153.759 215.310,154.275 215.801,154.441 215.812 C 154.606 215.824,154.360 215.350,153.895 214.761 C 153.429 214.171,152.913 213.680,152.748 213.669 C 152.582 213.658,152.828 214.131,153.294 214.721 M163.057 224.355 C 163.057 224.739,164.154 225.777,164.351 225.579 C 164.443 225.488,164.189 225.115,163.787 224.752 C 163.386 224.388,163.057 224.210,163.057 224.355 M238.076 232.775 C 237.599 233.278,237.285 233.767,237.379 233.861 C 237.473 233.955,237.988 233.540,238.523 232.939 C 239.697 231.622,239.307 231.478,238.076 232.775 M172.520 233.810 C 172.520 233.889,173.012 234.480,173.612 235.123 C 174.909 236.511,175.073 236.114,173.800 234.668 C 172.998 233.756,172.520 233.436,172.520 233.810 M176.888 238.290 C 176.888 238.710,177.921 239.681,178.124 239.451 C 178.193 239.373,177.944 238.993,177.569 238.608 C 177.195 238.222,176.888 238.080,176.888 238.290 M45.314 239.854 C 45.676 240.255,46.035 240.582,46.111 240.582 C 46.187 240.582,46.074 240.255,45.860 239.854 C 45.646 239.454,45.287 239.126,45.063 239.126 C 44.839 239.126,44.952 239.454,45.314 239.854 M172.012 242.769 C 170.431 244.369,168.998 245.678,168.827 245.678 C 168.657 245.678,168.517 245.853,168.517 246.068 C 168.517 246.521,167.615 247.492,167.178 247.510 C 166.592 247.534,165.241 248.898,165.241 249.467 C 165.241 249.797,164.938 250.045,164.533 250.045 C 164.121 250.045,163.626 250.460,163.350 251.036 C 163.089 251.580,162.514 252.206,162.073 252.426 C 161.632 252.646,159.223 254.889,156.718 257.412 C 154.214 259.934,151.873 262.054,151.515 262.122 C 151.157 262.190,150.812 262.613,150.748 263.061 C 150.684 263.509,150.398 263.876,150.111 263.876 C 149.825 263.876,149.591 264.086,149.591 264.341 C 149.591 264.844,148.632 265.768,147.460 266.395 C 147.058 266.611,146.627 267.107,146.503 267.497 C 146.379 267.887,145.942 268.313,145.532 268.443 C 143.903 268.960,142.759 271.156,144.120 271.156 C 144.326 271.156,144.495 271.536,144.495 272.001 C 144.495 272.550,145.388 273.785,147.043 275.523 C 148.444 276.996,149.591 278.335,149.591 278.500 C 149.591 278.664,149.836 278.799,150.136 278.799 C 150.437 278.799,150.682 278.984,150.682 279.210 C 150.682 279.437,151.829 280.759,153.230 282.150 C 154.631 283.540,155.778 284.829,155.778 285.014 C 155.778 285.199,156.024 285.350,156.324 285.350 C 156.624 285.350,156.870 285.513,156.870 285.712 C 156.870 286.212,161.859 291.069,163.021 291.701 C 170.070 295.534,176.413 295.529,183.506 291.687 C 184.657 291.063,189.627 286.200,189.627 285.697 C 189.627 285.506,189.873 285.350,190.173 285.350 C 190.473 285.350,190.719 285.217,190.719 285.055 C 190.719 284.893,193.258 282.162,196.360 278.987 C 199.463 275.811,202.002 273.078,202.002 272.913 C 202.002 272.747,202.247 272.611,202.548 272.611 C 202.848 272.611,203.094 272.447,203.094 272.247 C 203.094 272.046,203.749 271.290,204.550 270.566 C 206.244 269.035,206.677 266.788,205.278 266.788 C 204.814 266.788,204.550 266.545,204.550 266.120 C 204.550 265.439,202.670 263.512,202.005 263.512 C 201.803 263.512,201.638 263.347,201.638 263.145 C 201.638 262.480,199.711 260.601,199.030 260.601 C 198.663 260.601,198.362 260.342,198.362 260.027 C 198.362 259.380,196.445 257.325,195.842 257.325 C 195.627 257.325,195.450 257.138,195.450 256.909 C 195.450 256.681,194.959 256.024,194.359 255.450 C 193.758 254.876,193.267 254.244,193.267 254.046 C 193.267 253.848,193.109 253.685,192.916 253.685 C 192.722 253.685,191.003 252.106,189.094 250.175 C 186.394 247.444,185.623 246.838,185.623 247.445 C 185.623 247.896,185.393 248.226,185.077 248.226 C 184.687 248.226,184.531 247.828,184.531 246.830 C 184.531 245.408,182.996 243.473,181.896 243.509 C 181.644 243.517,181.971 243.980,182.623 244.538 C 183.765 245.516,183.841 246.042,182.842 246.042 C 182.580 246.042,182.112 245.551,181.802 244.950 C 181.491 244.349,180.996 243.858,180.700 243.858 C 180.051 243.858,179.997 243.078,180.605 242.471 C 180.950 242.126,180.871 241.855,180.241 241.225 L 179.436 240.421 179.436 241.229 C 179.436 241.796,179.217 242.038,178.708 242.038 C 178.308 242.038,177.980 241.878,177.980 241.682 C 177.980 241.400,175.435 239.846,174.992 239.857 C 174.934 239.858,173.593 241.169,172.012 242.769 M187.807 249.703 C 187.807 249.891,187.561 250.045,187.261 250.045 C 186.698 250.045,186.538 249.616,186.948 249.206 C 187.239 248.915,187.807 249.244,187.807 249.703 M250.027 286.140 C 248.736 287.175,247.625 288.157,247.558 288.324 C 247.492 288.490,247.205 288.626,246.921 288.626 C 246.638 288.626,246.404 288.831,246.403 289.081 C 246.401 289.331,245.876 289.945,245.236 290.446 C 243.434 291.856,230.755 304.609,230.755 305.011 C 230.755 305.208,230.551 305.369,230.300 305.370 C 230.050 305.370,229.533 305.836,229.152 306.405 C 228.771 306.974,227.993 307.752,227.424 308.133 C 226.855 308.514,226.382 308.990,226.373 309.190 C 226.364 309.390,225.850 309.964,225.230 310.464 C 224.610 310.965,219.533 315.919,213.947 321.474 C 208.361 327.029,203.634 331.574,203.442 331.574 C 203.251 331.574,203.079 331.779,203.061 332.029 C 203.044 332.279,202.082 333.303,200.924 334.304 C 199.766 335.305,198.606 336.492,198.347 336.943 C 198.087 337.393,197.657 337.762,197.391 337.762 C 197.124 337.762,196.906 338.007,196.906 338.308 C 196.906 338.608,196.661 338.854,196.360 338.854 C 196.060 338.854,195.811 338.976,195.807 339.126 C 195.798 339.473,192.589 342.861,191.583 343.585 C 191.166 343.885,189.581 345.073,188.061 346.224 C 186.542 347.375,185.139 348.317,184.945 348.317 C 184.750 348.317,183.745 348.742,182.711 349.261 C 177.242 352.008,164.660 352.519,161.419 350.125 C 161.219 349.978,160.523 349.743,159.873 349.604 C 159.222 349.465,158.690 349.213,158.690 349.044 C 158.690 348.875,158.112 348.546,157.405 348.313 C 156.699 348.080,155.290 347.330,154.275 346.647 C 153.260 345.964,152.200 345.405,151.920 345.405 C 151.640 345.405,151.410 345.254,151.410 345.071 C 151.410 344.731,149.186 343.221,148.685 343.221 C 147.820 343.221,153.128 348.839,155.141 350.054 C 155.692 350.386,156.142 350.786,156.142 350.943 C 156.142 351.100,156.297 351.228,156.487 351.228 C 156.677 351.228,157.291 351.655,157.852 352.177 C 158.413 352.698,159.486 353.392,160.237 353.718 C 160.987 354.045,161.601 354.516,161.601 354.765 C 161.601 355.014,162.052 355.329,162.602 355.465 C 163.153 355.601,164.214 356.096,164.961 356.564 C 165.708 357.033,166.632 357.416,167.015 357.416 C 167.398 357.416,167.805 357.662,167.921 357.962 C 168.058 358.320,168.626 358.508,169.571 358.508 C 170.616 358.508,171.044 358.672,171.129 359.105 C 171.248 359.708,173.802 360.675,175.302 360.686 C 175.731 360.689,176.177 360.937,176.292 361.237 C 176.430 361.599,177.001 361.783,177.980 361.783 C 178.959 361.783,179.530 361.968,179.668 362.329 C 179.814 362.710,180.408 362.875,181.628 362.875 C 182.705 362.875,183.437 363.050,183.530 363.330 C 183.649 363.687,188.216 363.785,204.732 363.785 C 221.248 363.785,225.814 363.687,225.933 363.330 C 226.020 363.070,226.693 362.875,227.510 362.875 C 228.534 362.875,228.935 362.722,228.935 362.329 C 228.935 361.934,229.341 361.783,230.403 361.783 C 231.371 361.783,231.941 361.598,232.079 361.237 C 232.195 360.937,232.671 360.692,233.138 360.692 C 233.606 360.692,234.089 360.528,234.213 360.328 C 234.337 360.127,234.754 359.964,235.141 359.964 C 235.528 359.964,236.049 359.636,236.299 359.236 C 236.549 358.835,237.124 358.508,237.576 358.508 C 238.065 358.508,238.399 358.286,238.399 357.962 C 238.399 357.626,238.740 357.416,239.284 357.416 C 240.332 357.416,243.858 355.314,243.858 354.690 C 243.858 354.452,244.273 354.068,244.780 353.837 C 246.284 353.152,248.709 351.190,249.871 349.719 C 250.468 348.964,251.242 348.247,251.592 348.125 C 251.943 348.003,252.229 347.669,252.229 347.382 C 252.229 347.095,252.412 346.861,252.636 346.861 C 253.159 346.861,255.128 344.638,255.135 344.040 C 255.138 343.790,255.374 343.585,255.659 343.585 C 256.082 343.585,258.417 341.602,258.417 341.243 C 258.417 341.110,262.129 337.398,262.262 337.398 C 262.621 337.398,264.604 335.063,264.604 334.640 C 264.604 334.355,264.836 334.122,265.119 334.122 C 265.545 334.122,267.278 332.474,271.091 328.443 C 271.355 328.163,271.724 327.934,271.910 327.934 C 272.095 327.934,272.247 327.689,272.247 327.389 C 272.247 327.088,272.431 326.843,272.655 326.843 C 273.177 326.843,275.146 324.620,275.153 324.022 C 275.157 323.772,275.392 323.567,275.677 323.567 C 276.100 323.567,278.435 321.584,278.435 321.225 C 278.435 321.092,282.147 317.379,282.281 317.379 C 282.744 317.379,284.566 315.026,284.729 314.217 C 284.843 313.654,285.036 312.934,285.159 312.618 C 285.303 312.244,285.184 312.041,284.820 312.041 C 284.511 312.041,284.258 312.254,284.258 312.515 C 284.258 312.812,284.027 312.900,283.640 312.752 C 283.286 312.616,283.199 312.455,283.437 312.376 C 284.086 312.160,283.535 311.192,282.764 311.192 C 282.385 311.192,282.075 310.950,282.075 310.653 C 282.075 310.357,281.419 309.781,280.619 309.372 C 279.818 308.964,279.163 308.495,279.163 308.331 C 279.163 308.167,278.753 307.847,278.253 307.619 C 277.753 307.391,277.343 306.955,277.343 306.650 C 277.343 306.339,277.024 306.096,276.615 306.096 C 276.215 306.096,275.887 305.945,275.887 305.760 C 275.887 305.576,275.383 304.921,274.767 304.305 C 274.151 303.689,273.496 303.185,273.311 303.185 C 273.127 303.185,272.975 302.857,272.975 302.457 C 272.975 302.056,272.803 301.729,272.592 301.729 C 271.994 301.729,269.700 299.780,269.700 299.272 C 269.700 299.022,269.331 298.814,268.881 298.811 C 267.955 298.804,266.656 297.585,266.269 296.360 C 266.123 295.897,265.717 295.541,265.334 295.541 C 264.962 295.541,264.335 295.132,263.941 294.631 C 263.548 294.131,262.962 293.722,262.641 293.722 C 262.319 293.722,262.056 293.494,262.056 293.216 C 262.056 292.476,258.857 289.354,258.099 289.354 C 257.470 289.354,255.869 287.947,255.869 287.394 C 255.869 286.925,254.943 286.163,254.205 286.024 C 253.819 285.952,253.342 285.524,253.144 285.075 C 252.669 283.996,252.727 283.976,250.027 286.140 M293.757 305.446 C 293.156 306.090,292.730 306.682,292.811 306.764 C 292.960 306.912,293.314 306.578,294.597 305.084 C 295.668 303.837,294.987 304.130,293.757 305.446 M290.446 308.644 C 289.773 309.245,289.089 309.736,288.924 309.736 C 288.760 309.736,288.626 309.964,288.626 310.243 C 288.626 310.774,287.737 311.317,286.806 311.355 C 286.506 311.367,286.253 311.704,286.243 312.103 C 286.234 312.503,286.047 312.795,285.827 312.752 C 285.608 312.709,285.342 313.005,285.236 313.410 C 284.942 314.533,285.424 314.185,288.940 310.737 C 292.050 307.687,293.006 306.359,290.446 308.644 " stroke="none" fill="#2f2d30" fill-rule="evenodd"></path><path id="path4" d="M222.748 11.506 C 221.887 11.672,219.941 12.474,218.744 13.157 C 218.444 13.328,217.843 13.623,217.408 13.812 C 216.973 14.000,207.934 22.844,197.321 33.465 C 186.708 44.086,177.961 52.775,177.883 52.775 C 177.588 52.775,167.789 62.716,167.789 63.015 C 167.789 63.189,167.624 63.330,167.423 63.330 C 166.974 63.330,163.421 66.917,163.421 67.371 C 163.421 67.551,163.290 67.698,163.130 67.698 C 162.748 67.698,158.326 72.067,158.326 72.444 C 158.326 72.603,158.168 72.787,157.975 72.854 C 157.384 73.059,151.058 79.379,149.367 81.456 C 147.449 83.810,147.369 84.579,148.954 85.395 C 149.604 85.730,150.420 86.348,150.767 86.769 C 151.113 87.190,151.570 87.739,151.782 87.989 C 151.994 88.239,152.488 88.444,152.881 88.444 C 153.313 88.444,153.594 88.691,153.594 89.069 C 153.594 89.755,155.261 91.356,155.974 91.356 C 156.220 91.356,156.507 91.683,156.611 92.084 C 156.716 92.484,157.063 92.812,157.382 92.812 C 157.701 92.812,157.962 93.054,157.962 93.350 C 157.962 93.646,158.617 94.223,159.418 94.631 C 160.218 95.040,160.874 95.508,160.874 95.672 C 160.874 95.836,161.283 96.157,161.783 96.385 C 162.284 96.613,162.693 97.049,162.693 97.353 C 162.693 97.665,163.012 97.907,163.421 97.907 C 163.822 97.907,164.157 98.112,164.166 98.362 C 164.175 98.612,164.823 99.308,165.605 99.909 C 166.387 100.510,167.035 101.288,167.044 101.638 C 167.053 101.988,167.280 102.275,167.547 102.275 C 167.814 102.275,168.781 103.012,169.694 103.913 C 170.608 104.813,171.518 105.551,171.717 105.551 C 171.916 105.551,172.173 105.796,172.288 106.096 C 172.403 106.397,172.731 106.642,173.016 106.642 C 173.300 106.642,173.636 107.052,173.762 107.552 C 173.909 108.140,174.246 108.462,174.711 108.462 C 175.108 108.462,175.432 108.702,175.432 108.995 C 175.432 109.289,175.801 109.724,176.251 109.962 C 177.116 110.421,178.344 111.676,178.344 112.102 C 178.344 112.438,179.640 113.922,179.934 113.922 C 180.060 113.922,180.164 113.715,180.164 113.463 C 180.164 113.210,180.655 112.598,181.256 112.102 C 181.856 111.606,182.348 110.984,182.348 110.720 C 182.348 110.455,182.494 110.330,182.673 110.440 C 182.853 110.551,183.093 110.397,183.208 110.098 C 183.323 109.799,183.667 109.554,183.974 109.554 C 184.281 109.554,184.531 109.308,184.531 109.008 C 184.531 108.708,184.749 108.462,185.016 108.462 C 185.282 108.462,185.718 108.055,185.984 107.558 C 186.250 107.061,186.769 106.559,187.137 106.442 C 187.506 106.325,187.807 105.930,187.807 105.565 C 187.807 105.199,188.053 104.806,188.353 104.691 C 188.653 104.576,188.899 104.231,188.899 103.924 C 188.899 103.618,189.104 103.362,189.354 103.356 C 189.924 103.343,192.175 101.322,192.175 100.824 C 192.175 100.621,192.343 100.455,192.550 100.455 C 193.077 100.455,195.258 97.899,195.321 97.207 C 195.349 96.891,195.390 96.415,195.412 96.148 C 195.433 95.881,196.844 94.243,198.546 92.508 C 207.960 82.916,211.784 78.954,212.974 77.559 C 214.492 75.780,218.926 72.429,219.764 72.429 C 220.072 72.429,220.583 72.212,220.899 71.946 C 222.843 70.311,232.290 70.265,234.759 71.879 C 235.059 72.076,236.042 72.585,236.943 73.011 C 237.843 73.438,239.039 74.218,239.600 74.746 C 240.161 75.273,240.678 75.705,240.749 75.705 C 241.049 75.705,246.406 81.244,246.406 81.554 C 246.406 81.740,246.538 81.893,246.700 81.893 C 247.002 81.893,256.961 91.699,256.961 91.997 C 256.961 92.119,302.275 137.371,311.463 146.425 C 312.113 147.065,312.645 147.712,312.646 147.862 C 312.647 148.012,312.788 148.135,312.960 148.135 C 313.367 148.135,317.015 151.784,317.015 152.190 C 317.015 152.362,317.220 152.512,317.470 152.524 C 317.721 152.537,318.499 153.264,319.199 154.140 C 319.900 155.017,320.678 155.744,320.928 155.756 C 321.178 155.768,321.383 155.918,321.383 156.089 C 321.383 156.494,328.674 163.785,329.080 163.785 C 329.251 163.785,329.390 163.936,329.390 164.119 C 329.390 164.548,333.004 168.153,333.434 168.153 C 333.612 168.153,333.758 168.378,333.758 168.654 C 333.758 168.930,334.741 170.058,335.943 171.161 C 337.145 172.263,338.379 173.717,338.685 174.390 C 338.991 175.063,339.625 176.297,340.093 177.131 C 341.040 178.817,341.316 180.002,341.816 184.531 C 342.231 188.293,342.215 189.686,341.753 190.149 C 341.560 190.342,341.401 191.021,341.401 191.657 C 341.401 192.293,341.156 193.017,340.855 193.267 C 340.555 193.516,340.309 193.875,340.309 194.065 C 340.309 194.991,337.416 198.382,331.865 203.961 C 328.502 207.340,325.736 210.206,325.718 210.330 C 325.700 210.454,324.759 211.374,323.625 212.375 C 322.492 213.376,320.746 215.122,319.745 216.255 C 318.744 217.388,317.834 218.330,317.722 218.348 C 317.540 218.377,312.224 223.669,310.011 226.025 C 308.528 227.603,308.457 229.663,309.885 229.663 C 310.154 229.663,310.471 230.155,310.591 230.755 C 310.717 231.381,311.041 231.847,311.351 231.847 C 311.648 231.847,312.594 232.501,313.453 233.299 C 316.178 235.835,317.054 236.579,317.315 236.579 C 317.454 236.579,317.773 236.906,318.023 237.307 C 318.273 237.707,318.704 238.035,318.981 238.035 C 319.259 238.035,319.580 238.280,319.695 238.581 C 319.810 238.881,320.144 239.126,320.436 239.126 C 320.729 239.126,321.021 239.495,321.085 239.945 C 321.160 240.472,321.494 240.806,322.020 240.881 C 322.470 240.945,322.839 241.236,322.839 241.529 C 322.839 241.822,323.085 242.155,323.385 242.271 C 323.685 242.386,323.931 242.697,323.931 242.963 C 323.931 243.228,324.275 243.554,324.696 243.688 C 325.117 243.822,326.382 244.815,327.507 245.896 C 328.632 246.977,329.762 247.862,330.017 247.862 C 330.273 247.862,330.482 248.033,330.482 248.243 C 330.482 248.857,333.622 251.865,334.264 251.865 C 334.586 251.865,334.850 252.017,334.850 252.201 C 334.850 252.621,336.980 254.777,337.395 254.777 C 337.563 254.777,337.756 254.914,337.822 255.082 C 337.889 255.249,338.664 255.905,339.545 256.538 C 340.426 257.171,340.958 257.689,340.728 257.689 C 340.498 257.689,340.309 257.847,340.309 258.041 C 340.309 258.748,341.346 257.972,341.771 256.948 C 342.011 256.369,342.312 255.908,342.441 255.925 C 342.570 255.942,342.798 255.915,342.948 255.867 C 343.098 255.818,343.426 255.758,343.676 255.732 C 343.926 255.707,344.293 255.318,344.490 254.868 C 344.688 254.418,344.960 254.049,345.094 254.049 C 345.446 254.049,348.716 250.839,349.682 249.545 C 350.132 248.942,350.500 248.548,350.500 248.669 C 350.500 248.791,351.565 247.872,352.866 246.627 C 354.167 245.383,355.232 244.168,355.232 243.929 C 355.232 243.690,355.395 243.494,355.594 243.494 C 356.110 243.494,361.419 238.240,361.419 237.730 C 361.419 237.497,361.653 237.307,361.937 237.307 C 362.596 237.307,364.695 235.227,364.695 234.576 C 364.695 234.305,364.929 234.031,365.215 233.967 C 365.737 233.849,370.883 229.040,370.883 228.670 C 370.883 228.438,372.663 226.752,372.908 226.752 C 373.258 226.752,375.229 224.366,375.240 223.931 C 375.245 223.681,375.537 223.468,375.887 223.459 C 376.237 223.450,377.015 222.802,377.616 222.020 C 378.217 221.238,378.833 220.590,378.986 220.581 C 379.429 220.554,381.415 218.245,381.427 217.743 C 381.433 217.493,381.654 217.288,381.918 217.288 C 382.182 217.288,382.754 216.879,383.189 216.379 C 383.625 215.878,384.145 215.469,384.347 215.469 C 384.549 215.469,384.713 215.141,384.713 214.741 C 384.713 214.340,384.932 214.013,385.199 214.013 C 385.466 214.013,386.096 213.562,386.598 213.012 C 387.100 212.461,387.905 211.655,388.387 211.221 C 388.869 210.786,390.048 209.599,391.007 208.582 C 391.966 207.565,392.908 206.733,393.100 206.733 C 393.292 206.733,393.449 206.587,393.449 206.408 C 393.449 206.228,393.855 205.696,394.352 205.225 C 394.849 204.753,395.259 204.163,395.262 203.913 C 395.266 203.662,395.496 203.458,395.775 203.458 C 396.053 203.458,396.385 203.043,396.512 202.537 C 396.640 202.031,397.149 201.264,397.644 200.833 C 398.139 200.403,398.544 199.725,398.544 199.326 C 398.544 198.928,398.831 198.285,399.181 197.898 C 399.761 197.257,399.818 196.106,399.818 185.078 C 399.818 174.049,399.761 172.898,399.181 172.257 C 398.831 171.870,398.544 171.198,398.544 170.763 C 398.544 170.328,398.395 169.973,398.213 169.973 C 398.030 169.973,397.524 169.236,397.088 168.335 C 396.652 167.434,396.064 166.697,395.782 166.697 C 395.499 166.697,395.268 166.378,395.268 165.987 C 395.268 165.597,395.063 165.146,394.813 164.986 C 394.562 164.826,394.115 164.225,393.818 163.650 C 393.521 163.075,393.052 162.518,392.774 162.412 C 392.065 162.140,389.081 159.193,389.081 158.764 C 389.081 158.569,388.696 158.157,388.226 157.849 C 386.722 156.863,383.993 154.071,384.267 153.798 C 384.412 153.652,384.368 153.585,384.167 153.649 C 383.763 153.777,378.526 148.627,378.526 148.102 C 378.526 147.920,378.403 147.811,378.253 147.859 C 377.930 147.964,374.349 144.396,373.543 143.166 C 373.235 142.696,372.851 142.311,372.691 142.311 C 372.246 142.311,369.574 139.685,369.114 138.795 C 368.891 138.363,368.215 137.790,367.612 137.523 C 367.008 137.256,366.515 136.868,366.515 136.661 C 366.515 136.454,366.171 136.044,365.752 135.749 C 365.332 135.455,364.844 134.845,364.669 134.395 C 364.493 133.944,364.090 133.576,363.773 133.576 C 363.456 133.576,363.279 133.442,363.380 133.279 C 363.481 133.115,363.091 132.703,362.514 132.361 C 361.936 132.020,361.364 131.425,361.241 131.039 C 361.119 130.653,360.740 130.248,360.400 130.139 C 360.060 130.030,359.454 129.449,359.054 128.848 C 358.653 128.246,358.213 127.754,358.074 127.754 C 357.676 127.752,354.319 124.400,353.608 123.294 C 353.254 122.743,352.823 122.293,352.650 122.293 C 352.197 122.293,348.379 118.348,348.609 118.118 C 348.715 118.012,348.634 117.925,348.428 117.925 C 347.878 117.925,344.677 114.857,344.677 114.330 C 344.677 114.082,344.554 113.953,344.404 114.044 C 344.048 114.259,343.197 113.339,343.486 113.051 C 343.607 112.929,343.513 112.830,343.277 112.830 C 342.833 112.830,340.609 110.652,337.762 107.428 C 336.861 106.409,335.919 105.569,335.669 105.562 C 335.419 105.556,335.214 105.383,335.214 105.179 C 335.214 104.791,332.120 101.664,330.180 100.091 C 329.562 99.591,329.050 99.058,329.042 98.908 C 329.026 98.625,322.475 92.046,322.475 92.313 C 322.475 92.395,321.493 91.435,320.293 90.180 C 319.093 88.925,318.110 87.775,318.109 87.625 C 318.108 87.475,317.852 87.352,317.540 87.352 C 317.228 87.352,317.055 87.218,317.156 87.054 C 317.258 86.891,317.000 86.522,316.583 86.236 C 316.167 85.949,315.643 85.494,315.420 85.225 C 315.196 84.956,314.604 84.322,314.104 83.816 C 313.603 83.311,313.235 82.753,313.285 82.577 C 313.335 82.401,313.204 82.257,312.994 82.257 C 312.785 82.257,312.234 81.847,311.770 81.347 C 311.306 80.846,310.815 80.437,310.678 80.437 C 310.217 80.437,308.656 78.528,308.855 78.207 C 308.963 78.032,308.872 77.889,308.654 77.889 C 308.436 77.889,306.952 76.603,305.357 75.031 C 303.762 73.460,302.457 72.270,302.457 72.388 C 302.457 72.506,302.021 71.991,301.489 71.242 C 300.956 70.494,300.301 69.882,300.033 69.882 C 299.765 69.882,299.545 69.725,299.545 69.534 C 299.545 69.117,297.812 67.334,297.406 67.334 C 297.249 67.334,296.901 66.924,296.633 66.424 C 296.365 65.924,295.956 65.514,295.723 65.514 C 295.491 65.514,295.075 65.092,294.798 64.576 C 294.522 64.060,293.999 63.479,293.635 63.284 C 293.271 63.089,293.085 62.749,293.222 62.528 C 293.358 62.307,293.307 62.227,293.108 62.350 C 292.908 62.473,292.387 62.089,291.949 61.496 C 291.511 60.903,290.985 60.419,290.782 60.419 C 290.289 60.419,288.597 58.576,288.795 58.256 C 288.880 58.117,288.465 57.718,287.872 57.367 C 287.279 57.017,286.890 56.573,287.009 56.382 C 287.127 56.190,287.077 56.078,286.896 56.133 C 286.716 56.188,285.639 55.284,284.503 54.124 C 283.368 52.964,282.439 52.143,282.439 52.300 C 282.439 52.456,282.003 51.972,281.471 51.224 C 280.938 50.476,280.283 49.864,280.015 49.864 C 279.746 49.864,279.527 49.723,279.527 49.552 C 279.527 49.193,275.902 45.496,275.550 45.496 C 275.421 45.496,275.026 45.005,274.671 44.404 C 274.316 43.803,273.872 43.312,273.683 43.312 C 273.494 43.312,273.339 43.066,273.339 42.766 C 273.339 42.466,273.158 42.220,272.937 42.220 C 272.715 42.220,272.212 41.811,271.819 41.310 C 271.425 40.810,270.943 40.400,270.748 40.400 C 270.209 40.400,268.594 38.534,268.818 38.171 C 268.926 37.996,268.861 37.853,268.672 37.853 C 268.484 37.853,267.630 37.157,266.776 36.306 C 265.921 35.455,265.083 34.800,264.913 34.850 C 264.743 34.900,264.604 34.683,264.604 34.369 C 264.604 33.801,263.779 32.757,263.330 32.757 C 263.201 32.757,262.507 32.102,261.788 31.301 C 261.069 30.500,260.262 29.845,259.995 29.845 C 259.727 29.845,259.509 29.518,259.509 29.117 C 259.509 28.717,259.332 28.389,259.116 28.389 C 258.900 28.389,258.094 27.734,257.325 26.934 C 256.556 26.133,255.749 25.478,255.534 25.478 C 255.318 25.478,255.141 25.268,255.141 25.012 C 255.141 23.940,252.641 22.102,252.023 22.720 C 251.154 23.589,251.105 23.557,246.406 19.164 C 245.004 17.854,243.061 16.479,241.191 15.473 C 240.255 14.970,238.729 14.149,237.798 13.649 C 236.868 13.148,235.693 12.739,235.188 12.739 C 234.683 12.739,233.986 12.482,233.639 12.168 C 232.999 11.588,224.883 11.095,222.748 11.506 " stroke="none" fill="#ebb21f" fill-rule="evenodd"></path></g></svg>